<svg width="1440" height="882" viewBox="0 0 1440 882" fill="none" xmlns="http://www.w3.org/2000/svg">
<g opacity="0.4">
<mask id="mask0_73_3010" style="mask-type:alpha" maskUnits="userSpaceOnUse" x="-55" y="-304" width="1505" height="1326">
<rect x="-53.9978" y="509.594" width="889.929" height="1247.48" transform="rotate(-65.8271 -53.9978 509.594)" fill="url(#paint0_linear_73_3010)" stroke="url(#paint1_linear_73_3010)" stroke-width="1.34864"/>
</mask>
<g mask="url(#mask0_73_3010)">
<path d="M815.665 50.9681C1059.51 160.417 1176.83 428.232 1077.7 649.099C1067.3 672.264 1054.9 694.074 1040.81 714.332C1089.74 509.895 972.868 285.11 754.554 187.119C536.239 89.1289 290.704 151.248 170.384 323.644C176.155 299.652 184.208 275.889 194.605 252.725C293.741 31.8573 571.822 -58.4805 815.665 50.9681Z" fill="url(#paint2_linear_73_3010)" stroke="url(#paint3_linear_73_3010)" stroke-width="2.10657" stroke-miterlimit="10"/>
<g filter="url(#filter0_f_73_3010)">
<path d="M808.875 66.096C1052.72 175.545 1176.83 428.232 1077.7 649.099C1067.3 672.264 1054.9 694.074 1040.81 714.332C1089.74 509.895 979.659 269.982 761.344 171.991C543.029 74.0011 290.704 151.248 170.384 323.644C176.155 299.652 184.208 275.889 194.605 252.725C293.741 31.8573 565.032 -43.3527 808.875 66.096Z" fill="url(#paint4_linear_73_3010)"/>
<path d="M808.875 66.096C1052.72 175.545 1176.83 428.232 1077.7 649.099C1067.3 672.264 1054.9 694.074 1040.81 714.332C1089.74 509.895 979.659 269.982 761.344 171.991C543.029 74.0011 290.704 151.248 170.384 323.644C176.155 299.652 184.208 275.889 194.605 252.725C293.741 31.8573 565.032 -43.3527 808.875 66.096Z" stroke="url(#paint5_linear_73_3010)" stroke-width="2.10657" stroke-miterlimit="10"/>
</g>
<g filter="url(#filter1_f_73_3010)">
<path d="M805.479 73.6604C1049.32 183.109 1177.61 446.755 1078.47 667.623C1068.07 690.788 1055.67 712.598 1041.58 732.855C1090.51 528.419 983.052 262.418 764.738 164.428C546.423 66.4376 282.736 171.529 162.416 343.924C168.187 319.932 176.24 296.17 186.637 273.005C285.773 52.1375 561.636 -35.7883 805.479 73.6604Z" fill="url(#paint6_linear_73_3010)"/>
<path d="M805.479 73.6604C1049.32 183.109 1177.61 446.755 1078.47 667.623C1068.07 690.788 1055.67 712.598 1041.58 732.855C1090.51 528.419 983.052 262.418 764.738 164.428C546.423 66.4376 282.736 171.529 162.416 343.924C168.187 319.932 176.24 296.17 186.637 273.005C285.773 52.1375 561.636 -35.7883 805.479 73.6604Z" stroke="url(#paint7_linear_73_3010)" stroke-width="2.10657" stroke-miterlimit="10"/>
</g>
<g filter="url(#filter2_f_73_3010)">
<path d="M805.479 73.6604C1049.32 183.109 1177.61 446.755 1078.47 667.623C1068.07 690.788 1055.67 712.598 1041.58 732.855C1090.51 528.419 983.052 262.418 764.738 164.428C546.423 66.4376 282.736 171.529 162.416 343.924C168.187 319.932 176.24 296.17 186.637 273.005C285.773 52.1375 561.636 -35.7883 805.479 73.6604Z" fill="url(#paint8_linear_73_3010)"/>
<path d="M805.479 73.6604C1049.32 183.109 1177.61 446.755 1078.47 667.623C1068.07 690.788 1055.67 712.598 1041.58 732.855C1090.51 528.419 983.052 262.418 764.738 164.428C546.423 66.4376 282.736 171.529 162.416 343.924C168.187 319.932 176.24 296.17 186.637 273.005C285.773 52.1375 561.636 -35.7883 805.479 73.6604Z" stroke="url(#paint9_linear_73_3010)" stroke-width="2.10657" stroke-miterlimit="10"/>
</g>
<g filter="url(#filter3_f_73_3010)">
<path d="M805.479 73.6604C1049.32 183.109 1177.61 446.755 1078.47 667.623C1068.07 690.788 1055.67 712.598 1041.58 732.855C1090.51 528.419 983.052 262.418 764.738 164.428C546.423 66.4376 282.736 171.529 162.416 343.924C168.187 319.932 176.24 296.17 186.637 273.005C285.773 52.1375 561.636 -35.7883 805.479 73.6604Z" fill="url(#paint10_linear_73_3010)"/>
<path d="M805.479 73.6604C1049.32 183.109 1177.61 446.755 1078.47 667.623C1068.07 690.788 1055.67 712.598 1041.58 732.855C1090.51 528.419 983.052 262.418 764.738 164.428C546.423 66.4376 282.736 171.529 162.416 343.924C168.187 319.932 176.24 296.17 186.637 273.005C285.773 52.1375 561.636 -35.7883 805.479 73.6604Z" stroke="url(#paint11_linear_73_3010)" stroke-width="2.10657" stroke-miterlimit="10"/>
</g>
<g filter="url(#filter4_f_73_3010)">
<path d="M802.406 122.265C1046.25 231.713 1177.61 446.756 1078.47 667.623C1068.07 690.788 1055.67 712.598 1041.58 732.855C1090.51 528.419 1000.25 240.603 775.772 139.845C494.507 13.5998 282.736 171.529 162.416 343.924C168.187 319.932 176.24 296.17 186.637 273.005C285.773 52.1376 558.564 12.8159 802.406 122.265Z" fill="url(#paint12_linear_73_3010)"/>
<path d="M802.406 122.265C1046.25 231.713 1177.61 446.756 1078.47 667.623C1068.07 690.788 1055.67 712.598 1041.58 732.855C1090.51 528.419 1000.25 240.603 775.772 139.845C494.507 13.5998 282.736 171.529 162.416 343.924C168.187 319.932 176.24 296.17 186.637 273.005C285.773 52.1376 558.564 12.8159 802.406 122.265Z" stroke="url(#paint13_linear_73_3010)" stroke-width="2.10657" stroke-miterlimit="10"/>
</g>
<g filter="url(#filter5_f_73_3010)">
<path d="M802.407 122.264C1046.25 231.713 1224.21 435.299 1125.08 656.166C1114.68 679.331 1026.27 731.778 1012.18 752.035C1061.12 547.599 1000.25 240.602 775.772 139.845C494.508 13.5994 297.157 204.696 176.838 377.092C198.868 386.98 126.471 309.613 136.868 286.449C236.004 65.5814 558.564 12.8155 802.407 122.264Z" fill="url(#paint14_linear_73_3010)"/>
<path d="M802.407 122.264C1046.25 231.713 1224.21 435.299 1125.08 656.166C1114.68 679.331 1026.27 731.778 1012.18 752.035C1061.12 547.599 1000.25 240.602 775.772 139.845C494.508 13.5994 297.157 204.696 176.838 377.092C198.868 386.98 126.471 309.613 136.868 286.449C236.004 65.5814 558.564 12.8155 802.407 122.264Z" stroke="url(#paint15_linear_73_3010)" stroke-width="2.10657" stroke-miterlimit="10"/>
</g>
<g filter="url(#filter6_f_73_3010)">
<path d="M802.407 122.264C1046.25 231.713 1224.21 435.299 1125.08 656.166C1114.68 679.331 1026.27 731.778 1012.18 752.035C1061.12 547.599 1000.25 240.602 775.772 139.845C494.508 13.5994 297.157 204.696 176.838 377.092C198.868 386.98 126.471 309.613 136.868 286.449C236.004 65.5814 558.564 12.8155 802.407 122.264Z" fill="url(#paint16_linear_73_3010)"/>
<path d="M802.407 122.264C1046.25 231.713 1224.21 435.299 1125.08 656.166C1114.68 679.331 1026.27 731.778 1012.18 752.035C1061.12 547.599 1000.25 240.602 775.772 139.845C494.508 13.5994 297.157 204.696 176.838 377.092C198.868 386.98 126.471 309.613 136.868 286.449C236.004 65.5814 558.564 12.8155 802.407 122.264Z" stroke="url(#paint17_linear_73_3010)" stroke-width="2.10657" stroke-miterlimit="10"/>
</g>
<g filter="url(#filter7_f_73_3010)">
<path d="M802.407 122.264C1046.25 231.713 1224.21 435.299 1125.08 656.166C1114.68 679.331 1026.27 731.778 1012.18 752.035C1061.12 547.599 1000.25 240.602 775.772 139.845C494.508 13.5994 297.157 204.696 176.838 377.092C198.868 386.98 126.471 309.613 136.868 286.449C236.004 65.5814 558.564 12.8155 802.407 122.264Z" fill="url(#paint18_linear_73_3010)"/>
<path d="M802.407 122.264C1046.25 231.713 1224.21 435.299 1125.08 656.166C1114.68 679.331 1026.27 731.778 1012.18 752.035C1061.12 547.599 1000.25 240.602 775.772 139.845C494.508 13.5994 297.157 204.696 176.838 377.092C198.868 386.98 126.471 309.613 136.868 286.449C236.004 65.5814 558.564 12.8155 802.407 122.264Z" stroke="url(#paint19_linear_73_3010)" stroke-width="2.10657" stroke-miterlimit="10"/>
</g>
</g>
<g filter="url(#filter8_f_73_3010)">
<circle cx="811.291" cy="676.865" r="226.715" fill="#FFA06E" fill-opacity="0.5"/>
</g>
<mask id="mask1_73_3010" style="mask-type:alpha" maskUnits="userSpaceOnUse" x="261" y="-129" width="1351" height="1514">
<rect x="811.244" y="-128.023" width="889.929" height="1247.48" transform="rotate(26.1152 811.244 -128.023)" fill="url(#paint20_linear_73_3010)" stroke="url(#paint21_linear_73_3010)" stroke-width="1.34864"/>
</mask>
<g mask="url(#mask1_73_3010)">
<path d="M1240.13 756.684C1122.48 996.677 850.842 1104.86 633.461 998.292C610.663 987.116 589.285 973.981 569.517 959.212C772.177 1015.05 1000.8 905.861 1106.13 690.993C1211.46 476.125 1157.7 228.625 989.482 102.532C1013.26 109.112 1036.74 117.966 1059.54 129.142C1276.92 235.707 1357.78 516.69 1240.13 756.684Z" fill="url(#paint22_linear_73_3010)" stroke="url(#paint23_linear_73_3010)" stroke-width="2.10657" stroke-miterlimit="10"/>
<g filter="url(#filter9_f_73_3010)">
<path d="M1225.24 749.385C1107.59 989.378 850.842 1104.86 633.461 998.292C610.663 987.116 589.285 973.981 569.517 959.212C772.177 1015.05 1015.68 913.16 1121.02 698.292C1226.35 483.424 1157.7 228.625 989.482 102.532C1013.26 109.112 1036.74 117.966 1059.54 129.142C1276.92 235.707 1342.89 509.391 1225.24 749.385Z" fill="url(#paint24_linear_73_3010)"/>
<path d="M1225.24 749.385C1107.59 989.378 850.842 1104.86 633.461 998.292C610.663 987.116 589.285 973.981 569.517 959.212C772.177 1015.05 1015.68 913.16 1121.02 698.292C1226.35 483.424 1157.7 228.625 989.482 102.532C1013.26 109.112 1036.74 117.966 1059.54 129.142C1276.92 235.707 1342.89 509.391 1225.24 749.385Z" stroke="url(#paint25_linear_73_3010)" stroke-width="2.10657" stroke-miterlimit="10"/>
</g>
<g filter="url(#filter10_f_73_3010)">
<path d="M1217.8 745.734C1100.15 985.727 832.304 1105 614.923 998.437C592.124 987.26 570.747 974.126 550.979 959.356C753.639 1015.19 1023.13 916.808 1128.46 701.94C1233.8 487.072 1137.7 219.975 969.484 93.8813C993.266 100.462 1016.74 109.315 1039.54 120.492C1256.92 227.057 1335.45 505.741 1217.8 745.734Z" fill="url(#paint26_linear_73_3010)"/>
<path d="M1217.8 745.734C1100.15 985.727 832.304 1105 614.923 998.437C592.124 987.26 570.747 974.126 550.979 959.356C753.639 1015.19 1023.13 916.808 1128.46 701.94C1233.8 487.072 1137.7 219.975 969.484 93.8813C993.266 100.462 1016.74 109.315 1039.54 120.492C1256.92 227.057 1335.45 505.741 1217.8 745.734Z" stroke="url(#paint27_linear_73_3010)" stroke-width="2.10657" stroke-miterlimit="10"/>
</g>
<g filter="url(#filter11_f_73_3010)">
<path d="M1217.8 745.734C1100.15 985.727 832.304 1105 614.923 998.437C592.124 987.26 570.747 974.126 550.979 959.356C753.639 1015.19 1023.13 916.808 1128.46 701.94C1233.8 487.072 1137.7 219.975 969.484 93.8813C993.266 100.462 1016.74 109.315 1039.54 120.492C1256.92 227.057 1335.45 505.741 1217.8 745.734Z" fill="url(#paint28_linear_73_3010)"/>
<path d="M1217.8 745.734C1100.15 985.727 832.304 1105 614.923 998.437C592.124 987.26 570.747 974.126 550.979 959.356C753.639 1015.19 1023.13 916.808 1128.46 701.94C1233.8 487.072 1137.7 219.975 969.484 93.8813C993.266 100.462 1016.74 109.315 1039.54 120.492C1256.92 227.057 1335.45 505.741 1217.8 745.734Z" stroke="url(#paint29_linear_73_3010)" stroke-width="2.10657" stroke-miterlimit="10"/>
</g>
<g filter="url(#filter12_f_73_3010)">
<path d="M1217.8 745.734C1100.15 985.727 832.304 1105 614.923 998.437C592.124 987.26 570.747 974.126 550.979 959.356C753.639 1015.19 1023.13 916.808 1128.46 701.94C1233.8 487.072 1137.7 219.975 969.484 93.8813C993.266 100.462 1016.74 109.315 1039.54 120.492C1256.92 227.057 1335.45 505.741 1217.8 745.734Z" fill="url(#paint30_linear_73_3010)"/>
<path d="M1217.8 745.734C1100.15 985.727 832.304 1105 614.923 998.437C592.124 987.26 570.747 974.126 550.979 959.356C753.639 1015.19 1023.13 916.808 1128.46 701.94C1233.8 487.072 1137.7 219.975 969.484 93.8813C993.266 100.462 1016.74 109.315 1039.54 120.492C1256.92 227.057 1335.45 505.741 1217.8 745.734Z" stroke="url(#paint31_linear_73_3010)" stroke-width="2.10657" stroke-miterlimit="10"/>
</g>
<g filter="url(#filter13_f_73_3010)">
<path d="M1169.32 741.016C1051.67 981.01 832.303 1105 614.923 998.437C592.124 987.26 570.747 974.126 550.979 959.356C753.639 1015.19 1044.35 934.737 1152.66 713.801C1288.36 436.977 1137.7 219.975 969.484 93.8813C993.266 100.462 1016.74 109.315 1039.54 120.492C1256.92 227.057 1286.97 501.023 1169.32 741.016Z" fill="url(#paint32_linear_73_3010)"/>
<path d="M1169.32 741.016C1051.67 981.01 832.303 1105 614.923 998.437C592.124 987.26 570.747 974.126 550.979 959.356C753.639 1015.19 1044.35 934.737 1152.66 713.801C1288.36 436.977 1137.7 219.975 969.484 93.8813C993.266 100.462 1016.74 109.315 1039.54 120.492C1256.92 227.057 1286.97 501.023 1169.32 741.016Z" stroke="url(#paint33_linear_73_3010)" stroke-width="2.10657" stroke-miterlimit="10"/>
</g>
<g filter="url(#filter14_f_73_3010)">
<path d="M1169.33 741.017C1051.67 981.01 842.174 1151.97 624.794 1045.4C601.995 1034.23 552.574 944.095 532.806 929.326C735.466 985.162 1044.35 934.738 1152.66 713.802C1288.36 436.978 1104.06 233.263 935.846 107.17C925.217 128.852 1004.99 59.1189 1027.79 70.2955C1245.17 176.86 1286.98 501.023 1169.33 741.017Z" fill="url(#paint34_linear_73_3010)"/>
<path d="M1169.33 741.017C1051.67 981.01 842.174 1151.97 624.794 1045.4C601.995 1034.23 552.574 944.095 532.806 929.326C735.466 985.162 1044.35 934.738 1152.66 713.802C1288.36 436.978 1104.06 233.263 935.846 107.17C925.217 128.852 1004.99 59.1189 1027.79 70.2955C1245.17 176.86 1286.98 501.023 1169.33 741.017Z" stroke="url(#paint35_linear_73_3010)" stroke-width="2.10657" stroke-miterlimit="10"/>
</g>
<g filter="url(#filter15_f_73_3010)">
<path d="M1169.33 741.017C1051.67 981.01 842.174 1151.97 624.794 1045.4C601.995 1034.23 552.574 944.095 532.806 929.326C735.466 985.162 1044.35 934.738 1152.66 713.802C1288.36 436.978 1104.06 233.263 935.846 107.17C925.217 128.852 1004.99 59.1189 1027.79 70.2955C1245.17 176.86 1286.98 501.023 1169.33 741.017Z" fill="url(#paint36_linear_73_3010)"/>
<path d="M1169.33 741.017C1051.67 981.01 842.174 1151.97 624.794 1045.4C601.995 1034.23 552.574 944.095 532.806 929.326C735.466 985.162 1044.35 934.738 1152.66 713.802C1288.36 436.978 1104.06 233.263 935.846 107.17C925.217 128.852 1004.99 59.1189 1027.79 70.2955C1245.17 176.86 1286.98 501.023 1169.33 741.017Z" stroke="url(#paint37_linear_73_3010)" stroke-width="2.10657" stroke-miterlimit="10"/>
</g>
<g filter="url(#filter16_f_73_3010)">
<path d="M1169.33 741.017C1051.67 981.01 842.174 1151.97 624.794 1045.4C601.995 1034.23 552.574 944.095 532.806 929.326C735.466 985.162 1044.35 934.738 1152.66 713.802C1288.36 436.978 1104.06 233.263 935.846 107.17C925.217 128.852 1004.99 59.1189 1027.79 70.2955C1245.17 176.86 1286.98 501.023 1169.33 741.017Z" fill="url(#paint38_linear_73_3010)"/>
<path d="M1169.33 741.017C1051.67 981.01 842.174 1151.97 624.794 1045.4C601.995 1034.23 552.574 944.095 532.806 929.326C735.466 985.162 1044.35 934.738 1152.66 713.802C1288.36 436.978 1104.06 233.263 935.846 107.17C925.217 128.852 1004.99 59.1189 1027.79 70.2955C1245.17 176.86 1286.98 501.023 1169.33 741.017Z" stroke="url(#paint39_linear_73_3010)" stroke-width="2.10657" stroke-miterlimit="10"/>
</g>
</g>
<g filter="url(#filter17_f_73_3010)">
<mask id="mask2_73_3010" style="mask-type:alpha" maskUnits="userSpaceOnUse" x="659" y="689" width="606" height="444">
<path opacity="0.8" d="M659.978 939.498L789.277 1131.78L1051.76 1051.09L1262.81 690.226L1059.66 715.678L1006.6 710.06L688.478 890.768L659.978 939.498Z" fill="url(#paint40_linear_73_3010)" stroke="url(#paint41_linear_73_3010)" stroke-width="1.32554"/>
</mask>
<g mask="url(#mask2_73_3010)">
<g opacity="0.8">
<path d="M765.34 958.751C754.892 954.325 745.048 948.991 735.549 942.995C770.28 959.406 811.302 956.555 852.018 942.393C900.173 925.644 948.024 893.038 984.829 857.503C1088.54 757.5 1143.32 602.527 1085.9 458.818C1105.7 474.153 1121.28 497.063 1133.61 522.54C1146.33 548.822 1155.57 577.786 1162.42 603.867C1169.27 629.949 1173.72 653.118 1176.88 667.842C1178.45 675.166 1179.72 680.479 1180.82 682.969C1181.1 683.587 1181.39 684.113 1181.73 684.446C1181.91 684.617 1182.14 684.779 1182.42 684.839C1182.73 684.904 1183.02 684.833 1183.26 684.678C1183.68 684.409 1183.97 683.881 1184.19 683.319C1184.39 682.803 1184.58 682.138 1184.76 681.329L1229.76 670.07C1228.12 682.02 1229.05 689.205 1231.06 693.93C1233.12 698.797 1236.31 700.98 1238.66 702.975C1239.85 703.978 1240.79 704.905 1241.38 706.086C1241.96 707.248 1242.23 708.722 1241.93 710.861C1241.33 715.198 1238.41 722.087 1231.35 734.159C1229.77 736.848 1225.8 741.226 1219.93 746.91C1214.09 752.572 1206.42 759.474 1197.53 767.198C1179.75 782.643 1157.09 801.352 1134.33 819.955C1111.57 838.556 1088.72 857.054 1070.56 872.068C1061.48 879.575 1053.57 886.215 1047.43 891.565C1041.34 896.868 1036.96 900.935 1034.91 903.325C950.981 973.125 849.056 994.428 765.341 958.751L765.34 958.751Z" fill="#FFA06E" stroke="url(#paint42_linear_73_3010)" stroke-width="1.32554"/>
<g filter="url(#filter18_f_73_3010)">
<path d="M1209.53 658.661C1202.26 708.594 1239.12 675.71 1210.9 723.967C1197.89 746.206 1030.3 874.56 1014.35 893.275C930.272 963.22 828.068 984.637 744.058 948.835C726.981 941.599 711.521 931.955 696.566 920.972C772.263 976.683 933.916 915.851 1007.42 844.88C1111.52 744.5 1194.73 623.085 1135.98 479.062C1219.31 540.703 1156.55 701.646 1163.18 670.258L1209.53 658.661Z" fill="#FFA06E"/>
<path d="M744.317 948.225C733.139 943.489 722.65 937.714 712.537 931.201C750.191 948.91 801.781 945.911 853 931.068C911.227 914.195 969.2 881.956 1006.14 847.023L1007.88 845.357C1111.47 745.477 1194.66 624.507 1137.49 481.042C1177.11 511.911 1182.06 566.187 1177.69 609.479C1175.47 631.439 1170.86 650.496 1167.22 662.095C1166.33 664.936 1165.5 667.315 1164.79 669.173L1163.02 669.615L1162.62 669.716L1162.53 670.121C1162.32 671.112 1162.18 671.924 1162.1 672.563C1162.02 673.183 1161.99 673.694 1162.04 674.054C1162.06 674.211 1162.12 674.477 1162.31 674.683C1162.42 674.805 1162.58 674.905 1162.79 674.931C1162.98 674.956 1163.14 674.907 1163.25 674.854C1163.46 674.757 1163.61 674.591 1163.72 674.459C1163.85 674.313 1163.97 674.131 1164.09 673.926C1164.53 673.199 1165.11 671.968 1165.77 670.295L1208.73 659.543C1207.1 671.494 1208.03 678.679 1210.03 683.404C1212.1 688.271 1215.29 690.454 1217.64 692.448C1218.82 693.451 1219.77 694.379 1220.36 695.56C1220.94 696.722 1221.21 698.196 1220.91 700.335C1220.3 704.673 1217.38 711.561 1210.32 723.633C1208.75 726.322 1204.78 730.7 1198.91 736.383C1193.06 742.046 1185.4 748.948 1176.51 756.671C1158.72 772.117 1136.06 790.825 1113.31 809.429C1090.55 828.03 1067.7 846.528 1049.54 861.542C1040.46 869.049 1032.55 875.689 1026.41 881.039C1020.32 886.341 1015.94 890.408 1013.89 892.798C929.959 962.599 828.033 983.901 744.318 948.224L744.317 948.225ZM1163.48 672.258C1163.54 671.843 1163.63 671.358 1163.75 670.801L1164.18 670.692C1163.92 671.298 1163.69 671.821 1163.48 672.258Z" stroke="url(#paint43_linear_73_3010)" stroke-width="1.32554"/>
</g>
<g filter="url(#filter19_f_73_3010)">
<path d="M1209.53 658.661C1202.26 708.594 1239.12 675.71 1210.9 723.967C1197.89 746.206 1030.3 874.56 1014.35 893.275C930.272 963.22 828.068 984.637 744.058 948.835C726.981 941.599 711.521 931.955 696.566 920.972C772.263 976.683 933.916 915.851 1007.42 844.88C1111.52 744.5 1194.73 623.085 1135.98 479.062C1219.31 540.703 1156.55 701.646 1163.18 670.258L1209.53 658.661Z" fill="#FFA06E"/>
<path d="M744.317 948.225C733.139 943.489 722.65 937.714 712.537 931.201C750.191 948.91 801.781 945.911 853 931.068C911.227 914.195 969.2 881.956 1006.14 847.023L1007.88 845.357C1111.47 745.477 1194.66 624.507 1137.49 481.042C1177.11 511.911 1182.06 566.187 1177.69 609.479C1175.47 631.439 1170.86 650.496 1167.22 662.095C1166.33 664.936 1165.5 667.315 1164.79 669.173L1163.02 669.615L1162.62 669.716L1162.53 670.121C1162.32 671.112 1162.18 671.924 1162.1 672.563C1162.02 673.183 1161.99 673.694 1162.04 674.054C1162.06 674.211 1162.12 674.477 1162.31 674.683C1162.42 674.805 1162.58 674.905 1162.79 674.931C1162.98 674.956 1163.14 674.907 1163.25 674.854C1163.46 674.757 1163.61 674.591 1163.72 674.459C1163.85 674.313 1163.97 674.131 1164.09 673.926C1164.53 673.199 1165.11 671.968 1165.77 670.295L1208.73 659.543C1207.1 671.494 1208.03 678.679 1210.03 683.404C1212.1 688.271 1215.29 690.454 1217.64 692.448C1218.82 693.451 1219.77 694.379 1220.36 695.56C1220.94 696.722 1221.21 698.196 1220.91 700.335C1220.3 704.673 1217.38 711.561 1210.32 723.633C1208.75 726.322 1204.78 730.7 1198.91 736.383C1193.06 742.046 1185.4 748.948 1176.51 756.671C1158.72 772.117 1136.06 790.825 1113.31 809.429C1090.55 828.03 1067.7 846.528 1049.54 861.542C1040.46 869.049 1032.55 875.689 1026.41 881.039C1020.32 886.341 1015.94 890.408 1013.89 892.798C929.959 962.599 828.033 983.901 744.318 948.224L744.317 948.225ZM1163.48 672.258C1163.54 671.843 1163.63 671.358 1163.75 670.801L1164.18 670.692C1163.92 671.298 1163.69 671.821 1163.48 672.258Z" stroke="url(#paint44_linear_73_3010)" stroke-width="1.32554"/>
</g>
<g filter="url(#filter20_f_73_3010)">
<path d="M1209.53 658.661C1202.26 708.594 1239.12 675.71 1210.9 723.967C1197.89 746.206 1030.3 874.56 1014.35 893.275C930.272 963.22 828.068 984.637 744.058 948.835C726.981 941.599 711.521 931.955 696.566 920.972C772.263 976.683 933.916 915.851 1007.42 844.88C1111.52 744.5 1194.73 623.085 1135.98 479.062C1219.31 540.703 1156.55 701.646 1163.18 670.258L1209.53 658.661Z" fill="#FFA06E"/>
<path d="M744.317 948.225C733.139 943.489 722.65 937.714 712.537 931.201C750.191 948.91 801.781 945.911 853 931.068C911.227 914.195 969.2 881.956 1006.14 847.023L1007.88 845.357C1111.47 745.477 1194.66 624.507 1137.49 481.042C1177.11 511.911 1182.06 566.187 1177.69 609.479C1175.47 631.439 1170.86 650.496 1167.22 662.095C1166.33 664.936 1165.5 667.315 1164.79 669.173L1163.02 669.615L1162.62 669.716L1162.53 670.121C1162.32 671.112 1162.18 671.924 1162.1 672.563C1162.02 673.183 1161.99 673.694 1162.04 674.054C1162.06 674.211 1162.12 674.477 1162.31 674.683C1162.42 674.805 1162.58 674.905 1162.79 674.931C1162.98 674.956 1163.14 674.907 1163.25 674.854C1163.46 674.757 1163.61 674.591 1163.72 674.459C1163.85 674.313 1163.97 674.131 1164.09 673.926C1164.53 673.199 1165.11 671.968 1165.77 670.295L1208.73 659.543C1207.1 671.494 1208.03 678.679 1210.03 683.404C1212.1 688.271 1215.29 690.454 1217.64 692.448C1218.82 693.451 1219.77 694.379 1220.36 695.56C1220.94 696.722 1221.21 698.196 1220.91 700.335C1220.3 704.673 1217.38 711.561 1210.32 723.633C1208.75 726.322 1204.78 730.7 1198.91 736.383C1193.06 742.046 1185.4 748.948 1176.51 756.671C1158.72 772.117 1136.06 790.825 1113.31 809.429C1090.55 828.03 1067.7 846.528 1049.54 861.542C1040.46 869.049 1032.55 875.689 1026.41 881.039C1020.32 886.341 1015.94 890.408 1013.89 892.798C929.959 962.599 828.033 983.901 744.318 948.224L744.317 948.225ZM1163.48 672.258C1163.54 671.843 1163.63 671.358 1163.75 670.801L1164.18 670.692C1163.92 671.298 1163.69 671.821 1163.48 672.258Z" stroke="url(#paint45_linear_73_3010)" stroke-width="1.32554"/>
</g>
<g filter="url(#filter21_f_73_3010)">
<path d="M1209.53 658.661C1202.26 708.594 1239.12 675.71 1210.9 723.967C1197.89 746.206 1030.3 874.56 1014.35 893.275C930.272 963.22 828.068 984.637 744.058 948.835C726.981 941.599 711.521 931.955 696.566 920.972C772.263 976.683 930.921 938.838 1004.43 867.868C1108.53 767.488 1194.73 623.085 1135.98 479.062C1219.31 540.703 1156.55 701.646 1163.18 670.258L1209.53 658.661Z" fill="#FFA06E"/>
<path d="M744.317 948.225C733.938 943.827 724.155 938.534 714.713 932.586C751.948 950.5 801.85 952.244 851.445 942.576C909.853 931.189 968.021 903.939 1004.89 868.345C1108.49 768.443 1194.62 624.726 1137.49 481.041C1177.11 511.909 1182.06 566.186 1177.69 609.479C1175.47 631.439 1170.86 650.496 1167.22 662.095C1166.33 664.936 1165.5 667.315 1164.79 669.173L1163.02 669.615L1162.62 669.716L1162.53 670.121C1162.32 671.112 1162.18 671.924 1162.1 672.563C1162.02 673.183 1161.99 673.694 1162.04 674.054C1162.06 674.211 1162.12 674.477 1162.31 674.683C1162.42 674.805 1162.58 674.905 1162.79 674.931C1162.98 674.956 1163.14 674.907 1163.25 674.854C1163.46 674.757 1163.61 674.591 1163.72 674.459C1163.85 674.313 1163.97 674.131 1164.09 673.926C1164.53 673.199 1165.11 671.968 1165.77 670.295L1208.73 659.543C1207.1 671.494 1208.03 678.679 1210.03 683.404C1212.1 688.271 1215.29 690.454 1217.64 692.448C1218.82 693.451 1219.77 694.379 1220.36 695.56C1220.94 696.722 1221.21 698.196 1220.91 700.335C1220.3 704.673 1217.38 711.561 1210.32 723.633C1208.75 726.322 1204.78 730.7 1198.91 736.383C1193.06 742.046 1185.4 748.948 1176.51 756.671C1158.72 772.117 1136.06 790.825 1113.31 809.429C1090.55 828.03 1067.7 846.528 1049.54 861.542C1040.46 869.049 1032.55 875.689 1026.41 881.039C1020.32 886.341 1015.94 890.408 1013.89 892.798C929.959 962.599 828.033 983.901 744.318 948.224L744.317 948.225ZM1163.48 672.258C1163.54 671.843 1163.63 671.358 1163.75 670.801L1164.18 670.692C1163.92 671.298 1163.69 671.821 1163.48 672.258Z" stroke="url(#paint46_linear_73_3010)" stroke-width="1.32554"/>
</g>
<g filter="url(#filter22_f_73_3010)">
<path d="M1209.53 658.661C1202.26 708.594 1239.12 675.71 1210.9 723.967C1197.89 746.205 1030.3 874.56 1014.35 893.274C930.272 963.22 828.068 984.636 744.059 948.834C726.981 941.599 704.346 933.216 689.391 922.233C765.088 977.944 927.692 943.135 1001.2 872.165C1105.3 771.785 1194.73 623.084 1135.98 479.062C1219.31 540.702 1156.55 701.645 1163.18 670.258L1209.53 658.661Z" fill="#FFA06E"/>
<path d="M731.367 942.845C765.191 952.487 805.81 952.589 846.233 945.357C905.625 934.731 964.786 908.242 1001.66 872.642C1053.75 822.411 1102.2 760.068 1130.27 692.233C1158.06 625.087 1165.89 552.532 1137.49 481.04C1177.11 511.908 1182.06 566.185 1177.69 609.479C1175.47 631.438 1170.86 650.496 1167.22 662.095C1166.33 664.936 1165.5 667.315 1164.79 669.174L1163.02 669.615L1162.62 669.715L1162.53 670.121C1162.32 671.112 1162.18 671.924 1162.1 672.562C1162.02 673.183 1161.99 673.694 1162.04 674.053C1162.06 674.211 1162.12 674.477 1162.31 674.683C1162.42 674.805 1162.58 674.905 1162.79 674.931C1162.98 674.956 1163.14 674.907 1163.25 674.854C1163.46 674.757 1163.62 674.591 1163.72 674.459C1163.85 674.312 1163.97 674.13 1164.09 673.925C1164.53 673.199 1165.11 671.968 1165.77 670.294L1208.73 659.543C1207.1 671.493 1208.03 678.678 1210.03 683.403C1212.1 688.271 1215.29 690.454 1217.64 692.448C1218.82 693.451 1219.77 694.379 1220.36 695.559C1220.94 696.722 1221.21 698.196 1220.91 700.335C1220.3 704.672 1217.38 711.561 1210.32 723.632C1208.75 726.321 1204.78 730.699 1198.91 736.383C1193.06 742.045 1185.4 748.948 1176.51 756.671C1158.72 772.117 1136.07 790.825 1113.31 809.429C1090.55 828.029 1067.7 846.528 1049.54 861.541C1040.46 869.049 1032.55 875.689 1026.41 881.038C1020.32 886.34 1015.94 890.406 1013.89 892.796C929.96 962.598 828.034 983.901 744.319 948.224L744.318 948.224C740.247 946.499 735.871 944.712 731.367 942.845ZM1163.48 672.257C1163.54 671.842 1163.63 671.358 1163.75 670.801L1164.18 670.692C1163.92 671.298 1163.69 671.821 1163.48 672.257Z" stroke="url(#paint47_linear_73_3010)" stroke-width="1.32554"/>
</g>
<g filter="url(#filter23_f_73_3010)">
<path d="M1230.55 669.187C1223.28 719.12 1260.14 686.237 1231.92 734.494C1218.91 756.732 1048 876.078 1032.06 894.792C947.98 964.738 849.09 995.163 765.081 959.361C748.004 952.125 732.543 942.481 717.588 931.498C793.285 987.21 916.192 931.113 989.698 860.142C1093.8 759.762 1177.25 620.813 1118.5 476.79C1201.83 538.431 1177.58 712.172 1184.2 680.784L1230.55 669.187Z" fill="#FFA06E"/>
<path d="M765.34 958.751C754.915 954.335 745.092 949.014 735.613 943.035C770.665 959.645 812.819 957.459 854.668 943.957C904.156 927.99 953.344 896.163 990.158 860.62C1093.77 760.716 1177.17 622.395 1120.01 478.766C1159.98 509.773 1174.36 567.275 1179.46 613.745C1182.04 637.317 1182.24 657.99 1182.2 670.818C1182.18 677.205 1182.1 681.706 1182.23 683.606C1182.25 683.849 1182.27 684.062 1182.3 684.24C1182.33 684.4 1182.37 684.591 1182.44 684.751C1182.48 684.825 1182.56 684.978 1182.73 685.088C1182.95 685.233 1183.22 685.239 1183.44 685.134C1183.6 685.053 1183.7 684.927 1183.75 684.861C1183.81 684.784 1183.85 684.701 1183.89 684.627C1184.02 684.344 1184.16 683.887 1184.31 683.3C1184.44 682.782 1184.59 682.126 1184.76 681.328L1229.76 670.07C1228.12 682.02 1229.05 689.205 1231.06 693.93C1233.12 698.797 1236.31 700.98 1238.66 702.975C1239.85 703.978 1240.79 704.905 1241.38 706.086C1241.96 707.249 1242.23 708.722 1241.93 710.861C1241.33 715.199 1238.41 722.088 1231.35 734.159C1229.78 736.838 1225.76 741.072 1219.8 746.509C1213.87 751.924 1206.08 758.474 1197.03 765.774C1178.94 780.375 1155.86 797.957 1132.69 815.435C1109.52 832.91 1086.25 850.282 1067.78 864.452C1058.55 871.537 1050.51 877.827 1044.27 882.931C1038.1 887.988 1033.66 891.919 1031.6 894.316C947.624 964.158 849.015 994.41 765.341 958.751L765.34 958.751Z" stroke="url(#paint48_linear_73_3010)" stroke-width="1.32554"/>
</g>
<g filter="url(#filter24_f_73_3010)">
<path d="M1219.71 668.153C1212.44 718.086 1249.3 685.202 1221.08 733.46C1208.07 755.698 1037.17 875.044 1021.22 893.758C937.142 963.704 838.252 994.129 754.243 958.327C737.166 951.091 721.705 941.447 706.75 930.464C782.447 986.175 912.816 934.442 986.321 863.472C1090.42 763.092 1173.87 624.142 1115.12 480.12C1198.46 541.76 1166.74 711.138 1173.36 679.75L1219.71 668.153Z" fill="#FFA06E"/>
<path d="M754.502 957.717C744.11 953.314 734.315 948.012 724.863 942.056C760.365 958.945 804.105 957.691 847.542 945.111C898.893 930.238 949.955 899.505 986.781 863.949C1090.39 764.045 1173.79 625.725 1116.63 482.096C1156.54 513.064 1169.08 569.48 1172.35 614.868C1174 637.891 1173.26 658.016 1172.53 670.429C1172.16 676.607 1171.79 680.935 1171.71 682.685C1171.71 682.908 1171.7 683.1 1171.7 683.253C1171.7 683.388 1171.71 683.551 1171.74 683.682C1171.75 683.719 1171.76 683.778 1171.79 683.841C1171.81 683.893 1171.88 684.025 1172.02 684.128C1172.21 684.264 1172.45 684.291 1172.66 684.211C1172.82 684.149 1172.92 684.043 1172.95 684C1173.03 683.908 1173.07 683.807 1173.09 683.76C1173.12 683.699 1173.14 683.631 1173.16 683.563C1173.32 683.089 1173.56 682.002 1173.93 680.294L1218.92 669.036C1217.28 680.986 1218.21 688.171 1220.22 692.896C1222.28 697.763 1225.47 699.946 1227.82 701.941C1229.01 702.944 1229.95 703.871 1230.54 705.052C1231.12 706.214 1231.39 707.688 1231.09 709.827C1230.49 714.165 1227.57 721.054 1220.51 733.125C1218.94 735.804 1214.92 740.037 1208.97 745.475C1203.03 750.89 1195.24 757.44 1186.19 764.74C1168.1 779.341 1145.03 796.923 1121.85 814.401C1098.69 831.876 1075.42 849.248 1056.94 863.418C1047.71 870.503 1039.67 876.793 1033.44 881.897C1027.26 886.954 1022.82 890.885 1020.76 893.282C936.786 963.123 838.177 993.376 754.503 957.717L754.502 957.717Z" stroke="url(#paint49_linear_73_3010)" stroke-width="1.32554"/>
</g>
<g filter="url(#filter25_f_73_3010)">
<path d="M1214.86 661.778C1207.59 711.711 1244.45 678.827 1216.22 727.085C1203.22 749.323 1032.31 868.669 1016.37 887.383C932.287 957.329 833.397 987.754 749.387 951.952C732.31 944.716 716.85 935.072 701.895 924.089C777.592 979.8 927.917 937.971 1001.42 867.001C1105.52 766.621 1188.97 627.671 1130.22 483.649C1213.56 545.289 1161.88 704.763 1168.51 673.375L1214.86 661.778Z" fill="#FFA06E"/>
<path d="M749.646 951.342C739.268 946.945 729.486 941.652 720.046 935.705C756.774 953.321 804.852 954.203 852.623 943.699C908.954 931.312 965.027 903.062 1001.88 867.479C1105.49 767.575 1188.89 629.256 1131.73 485.627C1171.46 516.5 1179.11 570.442 1177.47 613.373C1176.63 635.15 1173.41 654.027 1170.8 665.494C1170.16 668.336 1169.55 670.712 1169.04 672.561L1168.35 672.732L1167.95 672.833L1167.86 673.238C1167.45 675.189 1167.25 676.47 1167.24 677.087C1167.24 677.223 1167.24 677.433 1167.31 677.616C1167.35 677.702 1167.46 677.941 1167.74 678.045C1168.06 678.159 1168.31 678.018 1168.41 677.948C1168.51 677.873 1168.58 677.783 1168.63 677.726C1168.67 677.662 1168.72 677.592 1168.75 677.523C1168.83 677.385 1168.91 677.213 1168.99 677.018C1169.27 676.345 1169.65 675.209 1170.1 673.662L1214.06 662.66C1212.42 674.611 1213.36 681.796 1215.36 686.521C1217.43 691.388 1220.62 693.571 1222.97 695.566C1224.15 696.569 1225.09 697.496 1225.68 698.677C1226.27 699.839 1226.54 701.313 1226.24 703.452C1225.63 707.79 1222.71 714.678 1215.65 726.75C1214.09 729.429 1210.07 733.662 1204.11 739.1C1198.18 744.515 1190.38 751.065 1181.34 758.365C1163.24 772.966 1140.17 790.548 1117 808.026C1093.83 825.501 1070.56 842.873 1052.09 857.043C1042.85 864.128 1034.81 870.418 1028.58 875.522C1022.41 880.579 1017.96 884.51 1015.91 886.907C931.93 956.748 833.321 987.001 749.648 951.342L749.646 951.342Z" stroke="url(#paint50_linear_73_3010)" stroke-width="1.32554"/>
</g>
<g filter="url(#filter26_f_73_3010)">
<path d="M1214.86 661.776C1207.59 711.71 1244.45 678.826 1216.22 727.083C1203.22 749.321 1042.93 857.045 1026.99 875.76C942.908 945.705 817.012 986.193 733.003 950.39C715.926 943.155 716.85 935.071 701.895 924.088C777.592 979.799 903.163 976.512 976.669 905.542C1080.77 805.162 1204.15 739.061 1145.4 595.039C1228.73 656.679 1161.88 704.761 1168.51 673.374L1214.86 661.776Z" fill="#FFA06E"/>
<path d="M963.541 917.92C968.238 914.188 972.776 910.223 977.13 906.019C1003.14 880.936 1030.35 858.006 1055.65 835.426C1080.95 812.859 1104.33 790.652 1122.63 767.063C1140.93 743.469 1154.15 718.469 1159.11 690.314C1163.96 662.727 1160.87 632.164 1146.89 596.991C1186.34 626.895 1190.28 653.27 1185.21 668.511L1168.35 672.731L1167.95 672.832L1167.86 673.237C1167.02 677.217 1167.3 680.119 1168.48 681.911C1169.71 683.783 1171.78 684.263 1173.99 683.685C1176.17 683.113 1178.57 681.506 1180.75 679.077C1182.88 676.704 1184.84 673.509 1186.23 669.623L1214.06 662.658C1212.42 674.609 1213.36 681.794 1215.36 686.519C1217.43 691.386 1220.62 693.569 1222.97 695.564C1224.15 696.567 1225.09 697.495 1225.68 698.676C1226.27 699.838 1226.54 701.311 1226.24 703.45C1225.63 707.788 1222.71 714.677 1215.65 726.748C1214.09 729.427 1210.24 733.48 1204.57 738.597C1198.93 743.693 1191.55 749.788 1183 756.544C1165.91 770.054 1144.16 786.183 1122.32 802.208C1100.48 818.23 1078.53 834.15 1061.06 847.231C1052.32 853.771 1044.69 859.607 1038.75 864.394C1032.86 869.139 1028.58 872.891 1026.52 875.287C1007.37 891.214 986.045 905.609 963.541 917.92ZM1173.65 682.403C1171.83 682.881 1170.42 682.449 1169.59 681.184C1168.73 679.886 1168.37 677.55 1169.08 673.916L1184.67 670.014C1183.36 673.367 1181.62 676.122 1179.76 678.191C1177.69 680.499 1175.5 681.917 1173.65 682.403ZM840.824 961.615C853.826 959.757 866.987 956.977 880.144 953.37C903.056 947.088 925.968 938.292 948.014 927.468C916.152 948.208 878.586 959.434 840.824 961.615ZM733.261 949.78C724.836 946.21 720.875 942.45 717.151 938.207C715.192 935.976 713.282 933.591 710.828 931.03C740.107 949.805 775.568 960.562 812.164 962.866C783.77 963.85 756.848 959.832 733.263 949.781L733.261 949.78Z" stroke="url(#paint51_linear_73_3010)" stroke-width="1.32554"/>
</g>
<g filter="url(#filter27_f_73_3010)">
<path d="M1214.86 661.776C1207.59 711.71 1244.45 678.826 1216.22 727.083C1203.22 749.321 1018.73 870.29 1002.79 889.005C918.71 958.95 817.012 986.193 733.003 950.39C715.926 943.155 716.85 935.071 701.895 924.088C777.592 979.799 898.993 955.514 972.499 884.544C1076.6 784.164 1204.15 739.061 1145.4 595.039C1228.73 656.679 1161.88 704.761 1168.51 673.374L1214.86 661.776Z" fill="#FFA06E"/>
<path d="M733.261 949.78C724.836 946.21 720.875 942.45 717.151 938.207C715.138 935.914 713.176 933.46 710.624 930.818C747.26 953.741 792.836 959.85 838.125 952.475C887.256 944.476 936.107 920.602 972.959 885.022C998.958 859.952 1026.42 838.332 1052.11 817.731C1077.78 797.141 1101.69 777.56 1120.51 756.601C1139.34 735.634 1153.1 713.253 1158.45 687.05C1163.7 661.378 1160.86 632.107 1146.89 596.991C1186.34 626.895 1190.28 653.27 1185.21 668.511L1168.35 672.731L1167.95 672.832L1167.86 673.237C1167.02 677.217 1167.3 680.119 1168.48 681.911C1169.71 683.783 1171.78 684.263 1173.99 683.685C1176.17 683.113 1178.57 681.506 1180.75 679.077C1182.88 676.704 1184.84 673.509 1186.23 669.623L1214.06 662.658C1212.42 674.609 1213.36 681.794 1215.36 686.519C1217.43 691.386 1220.62 693.569 1222.97 695.564C1224.15 696.567 1225.09 697.495 1225.68 698.676C1226.27 699.838 1226.54 701.311 1226.24 703.45C1225.63 707.788 1222.71 714.677 1215.65 726.748C1214.88 728.065 1213.45 729.794 1211.39 731.897C1209.33 733.991 1206.69 736.427 1203.54 739.156C1197.23 744.616 1188.91 751.229 1179.23 758.606C1159.87 773.359 1135.1 791.144 1110.23 808.825C1085.36 826.502 1060.39 844.077 1040.65 858.4C1030.78 865.561 1022.2 871.914 1015.6 877.064C1009.06 882.162 1004.4 886.122 1002.33 888.527C918.371 958.353 816.952 985.447 733.263 949.781L733.261 949.78ZM1173.65 682.403C1171.83 682.881 1170.42 682.449 1169.59 681.184C1168.73 679.886 1168.37 677.55 1169.08 673.916L1184.67 670.014C1183.36 673.367 1181.62 676.122 1179.76 678.191C1177.69 680.499 1175.5 681.917 1173.65 682.403Z" stroke="url(#paint52_linear_73_3010)" stroke-width="1.32554"/>
</g>
</g>
</g>
</g>
<mask id="mask3_73_3010" style="mask-type:alpha" maskUnits="userSpaceOnUse" x="-6" y="286" width="711" height="737">
<rect x="328.268" y="1022.47" width="428.239" height="600.033" transform="rotate(-141.164 328.268 1022.47)" fill="url(#paint53_linear_73_3010)"/>
</mask>
<g mask="url(#mask3_73_3010)">
<path d="M220.81 561.989C301.343 461.955 440.101 439.993 530.709 512.937C540.212 520.588 548.841 529.005 556.544 538.019C467.468 490.408 348.766 517.394 276.664 606.954C204.563 696.515 203.574 818.203 269.075 895.098C258.624 889.498 248.558 882.865 239.055 875.214C148.447 802.27 140.277 662.022 220.81 561.989Z" fill="url(#paint54_linear_73_3010)"/>
<g filter="url(#filter28_f_73_3010)">
<path d="M227.016 566.985C307.549 466.951 440.101 439.993 530.709 512.937C540.212 520.588 548.841 529.005 556.544 538.019C467.468 490.408 342.56 512.397 270.458 601.958C198.357 691.519 203.574 818.203 269.075 895.098C258.624 889.498 248.558 882.865 239.055 875.214C148.447 802.27 146.484 667.018 227.016 566.985Z" fill="url(#paint55_linear_73_3010)"/>
</g>
<g filter="url(#filter29_f_73_3010)">
<path d="M230.119 569.483C310.652 469.449 448.805 441.886 539.413 514.83C548.916 522.481 557.546 530.898 565.248 539.912C476.172 492.301 339.457 509.899 267.356 599.46C195.254 689.021 212.032 824.372 277.533 901.268C267.082 895.668 257.016 889.034 247.513 881.384C156.905 808.439 149.587 669.516 230.119 569.483Z" fill="url(#paint56_linear_73_3010)"/>
</g>
<g filter="url(#filter30_f_73_3010)">
<path d="M230.119 569.483C310.652 469.449 448.805 441.886 539.413 514.83C548.916 522.481 557.546 530.898 565.248 539.912C476.172 492.301 339.457 509.899 267.356 599.46C195.254 689.021 212.032 824.372 277.533 901.268C267.082 895.668 257.016 889.034 247.513 881.384C156.905 808.439 149.587 669.516 230.119 569.483Z" fill="url(#paint57_linear_73_3010)"/>
</g>
<g filter="url(#filter31_f_73_3010)">
<path d="M230.119 569.483C310.652 469.449 448.805 441.886 539.413 514.83C548.916 522.481 557.546 530.898 565.248 539.912C476.172 492.301 339.457 509.899 267.356 599.46C195.254 689.021 212.032 824.372 277.533 901.268C267.082 895.668 257.016 889.034 247.513 881.384C156.905 808.439 149.587 669.516 230.119 569.483Z" fill="url(#paint58_linear_73_3010)"/>
</g>
<g filter="url(#filter32_f_73_3010)">
<path d="M252.338 576.822C332.871 476.789 448.805 441.886 539.413 514.83C548.916 522.481 557.546 530.898 565.248 539.912C476.172 492.301 331.409 499.251 257.271 591.341C164.379 706.726 212.032 824.372 277.533 901.268C267.082 895.668 257.016 889.034 247.513 881.384C156.905 808.439 171.806 676.856 252.338 576.822Z" fill="url(#paint59_linear_73_3010)"/>
</g>
<g filter="url(#filter33_f_73_3010)">
<path d="M252.338 576.822C332.871 476.789 449.148 418.829 539.756 491.773C549.259 499.424 562.886 546.896 570.588 555.91C481.512 508.299 331.408 499.251 257.271 591.341C164.379 706.726 229.204 821.703 294.704 898.599C301.98 889.561 257.212 913.804 247.709 906.153C157.101 833.209 171.806 676.856 252.338 576.822Z" fill="url(#paint60_linear_73_3010)"/>
</g>
<g filter="url(#filter34_f_73_3010)">
<path d="M252.338 576.822C332.871 476.789 449.148 418.829 539.756 491.773C549.259 499.424 562.886 546.896 570.588 555.91C481.512 508.299 331.408 499.251 257.271 591.341C164.379 706.726 229.204 821.703 294.704 898.599C301.98 889.561 257.212 913.804 247.709 906.153C157.101 833.209 171.806 676.856 252.338 576.822Z" fill="url(#paint61_linear_73_3010)"/>
</g>
<g filter="url(#filter35_f_73_3010)">
<path d="M252.338 576.822C332.871 476.789 449.148 418.829 539.756 491.773C549.259 499.424 562.886 546.896 570.588 555.91C481.512 508.299 331.408 499.251 257.271 591.341C164.379 706.726 229.204 821.703 294.704 898.599C301.98 889.561 257.212 913.804 247.709 906.153C157.101 833.209 171.806 676.856 252.338 576.822Z" fill="url(#paint62_linear_73_3010)"/>
</g>
</g>
<g filter="url(#filter36_f_73_3010)">
<mask id="mask4_73_3010" style="mask-type:alpha" maskUnits="userSpaceOnUse" x="203" y="433" width="310" height="176">
<path opacity="0.8" d="M512.061 537.687L471.804 433.889L340.248 443.934L203.149 590.736L301.057 600.301L325.331 608.549L493.548 557.511L512.061 537.687Z" fill="url(#paint63_linear_73_3010)"/>
</mask>
<g mask="url(#mask4_73_3010)">
<g opacity="0.8">
<path d="M216.044 604.011C224.734 581.378 203.978 592.89 222.312 573.258C230.761 564.212 322.889 521.786 332.341 514.701C379.149 490.815 429.317 491.591 464.903 517.259C472.141 522.457 478.367 528.613 484.214 535.342C454.63 501.223 393.259 516.535 351.299 542.021C291.887 578.053 249.782 645.281 262.081 718.999C229.545 681.292 245.42 589.47 238.993 603.479L216.044 604.011Z" fill="#FFA06E" fill-opacity="0.5"/>
<g filter="url(#filter37_f_73_3010)">
<path d="M224.783 611.169C233.474 588.535 212.718 600.047 231.051 580.415C239.5 571.369 331.629 528.943 341.081 521.858C387.889 497.972 438.056 498.748 473.642 524.416C480.88 529.614 487.106 535.77 492.953 542.5C463.369 508.38 381.169 519.788 339.209 545.273C279.798 581.306 227.953 629.408 240.252 703.125C207.716 665.418 254.159 596.627 247.732 610.637L224.783 611.169Z" fill="#FFA06E" fill-opacity="0.5"/>
</g>
<g filter="url(#filter38_f_73_3010)">
<path d="M224.783 611.169C233.474 588.535 212.718 600.047 231.051 580.415C239.5 571.369 331.629 528.943 341.081 521.858C387.889 497.972 438.056 498.748 473.642 524.416C480.88 529.614 487.106 535.77 492.953 542.5C463.369 508.38 381.169 519.788 339.209 545.273C279.798 581.306 227.953 629.408 240.252 703.125C207.716 665.418 254.159 596.627 247.732 610.637L224.783 611.169Z" fill="#FFA06E" fill-opacity="0.5"/>
</g>
<g filter="url(#filter39_f_73_3010)">
<path d="M224.783 611.169C233.474 588.535 212.718 600.047 231.051 580.415C239.5 571.369 331.629 528.943 341.081 521.858C387.889 497.972 438.056 498.748 473.642 524.416C480.88 529.614 487.106 535.77 492.953 542.5C463.369 508.38 381.169 519.788 339.209 545.273C279.798 581.306 227.953 629.408 240.252 703.125C207.716 665.418 254.159 596.627 247.732 610.637L224.783 611.169Z" fill="#FFA06E" fill-opacity="0.5"/>
</g>
<g filter="url(#filter40_f_73_3010)">
<path d="M224.783 611.169C233.474 588.535 212.718 600.047 231.051 580.415C239.5 571.369 331.629 528.943 341.081 521.858C387.889 497.972 438.056 498.748 473.642 524.416C480.88 529.614 487.106 535.77 492.953 542.5C463.369 508.38 385.005 509.331 343.045 534.817C283.633 570.849 227.953 629.408 240.252 703.125C207.716 665.418 254.159 596.627 247.732 610.637L224.783 611.169Z" fill="#FFA06E" fill-opacity="0.5"/>
</g>
<g filter="url(#filter41_f_73_3010)">
<path d="M224.783 611.169C233.474 588.535 212.717 600.047 231.051 580.416C239.5 571.369 331.628 528.943 341.08 521.859C387.888 497.972 438.056 498.748 473.642 524.416C480.88 529.614 490.602 535.938 496.449 542.668C466.865 508.548 386.973 507.658 345.013 533.144C285.601 569.176 227.953 629.408 240.252 703.125C207.716 665.418 254.159 596.627 247.732 610.637L224.783 611.169Z" fill="#FFA06E" fill-opacity="0.5"/>
</g>
<g filter="url(#filter42_f_73_3010)">
<path d="M216.044 604.011C224.734 581.378 203.978 592.89 222.312 573.258C230.761 564.212 323.489 526.358 332.942 519.274C379.75 495.388 429.317 491.591 464.903 517.259C472.141 522.457 478.367 528.613 484.214 535.342C454.63 501.223 391.09 514.511 349.131 539.996C289.719 576.028 235.907 632.323 248.205 706.04C215.669 668.333 245.42 589.47 238.993 603.479L216.044 604.011Z" fill="#FFA06E" fill-opacity="0.5"/>
</g>
<g filter="url(#filter43_f_73_3010)">
<path d="M221.014 605.643C229.704 583.009 208.948 594.521 227.282 574.89C235.73 565.844 328.459 527.99 337.911 520.906C384.719 497.019 434.287 493.222 469.872 518.891C477.111 524.089 483.336 530.244 489.184 536.974C459.6 502.854 393.025 513.308 351.065 538.793C291.654 574.826 237.841 631.12 250.14 704.837C217.604 667.13 250.39 591.102 243.963 605.111L221.014 605.643Z" fill="#FFA06E" fill-opacity="0.5"/>
</g>
<g filter="url(#filter44_f_73_3010)">
<path d="M222.615 609.144C231.306 586.51 210.55 598.022 228.883 578.391C237.332 569.345 330.061 531.491 339.513 524.407C386.321 500.52 435.888 496.723 471.474 522.392C478.712 527.59 484.938 533.745 490.785 540.475C461.201 506.355 386.321 510.055 344.361 535.541C284.95 571.573 231.137 627.868 243.436 701.585C210.9 663.878 251.991 594.602 245.564 608.612L222.615 609.144Z" fill="#FFA06E" fill-opacity="0.5"/>
</g>
<g filter="url(#filter45_f_73_3010)">
<path d="M222.614 609.145C231.305 586.511 210.549 598.023 228.883 578.392C237.331 569.345 323.852 535.815 333.305 528.731C380.113 504.844 443.402 499.189 478.987 524.857C486.226 530.055 484.937 533.746 490.784 540.476C461.201 506.356 402 494.611 360.04 520.096C300.628 556.129 235.81 574.056 248.109 647.773C215.573 610.066 251.99 594.603 245.564 608.613L222.614 609.145Z" fill="#FFA06E" fill-opacity="0.5"/>
</g>
<g filter="url(#filter46_f_73_3010)">
<path d="M222.614 609.145C231.305 586.511 210.549 598.023 228.883 578.392C237.331 569.345 336.595 532.168 346.047 525.083C392.855 501.197 443.402 499.189 478.987 524.857C486.226 530.055 484.937 533.746 490.784 540.476C461.201 506.356 401.732 504.893 359.773 530.379C300.361 566.411 235.81 574.056 248.109 647.773C215.573 610.066 251.99 594.603 245.564 608.613L222.614 609.145Z" fill="#FFA06E" fill-opacity="0.5"/>
</g>
</g>
</g>
</g>
</g>
<defs>
<filter id="filter0_f_73_3010" x="151.872" y="-0.855537" width="977.315" height="736.557" filterUnits="userSpaceOnUse" color-interpolation-filters="sRGB">
<feFlood flood-opacity="0" result="BackgroundImageFix"/>
<feBlend mode="normal" in="SourceGraphic" in2="BackgroundImageFix" result="shape"/>
<feGaussianBlur stdDeviation="8.09183" result="effect1_foregroundBlur_73_3010"/>
</filter>
<filter id="filter1_f_73_3010" x="111.537" y="-22.9353" width="1050.22" height="809.528" filterUnits="userSpaceOnUse" color-interpolation-filters="sRGB">
<feFlood flood-opacity="0" result="BackgroundImageFix"/>
<feBlend mode="normal" in="SourceGraphic" in2="BackgroundImageFix" result="shape"/>
<feGaussianBlur stdDeviation="24.2755" result="effect1_foregroundBlur_73_3010"/>
</filter>
<filter id="filter2_f_73_3010" x="89.9587" y="-44.5135" width="1093.37" height="852.684" filterUnits="userSpaceOnUse" color-interpolation-filters="sRGB">
<feFlood flood-opacity="0" result="BackgroundImageFix"/>
<feBlend mode="normal" in="SourceGraphic" in2="BackgroundImageFix" result="shape"/>
<feGaussianBlur stdDeviation="35.0646" result="effect1_foregroundBlur_73_3010"/>
</filter>
<filter id="filter3_f_73_3010" x="89.9587" y="-44.5135" width="1093.37" height="852.684" filterUnits="userSpaceOnUse" color-interpolation-filters="sRGB">
<feFlood flood-opacity="0" result="BackgroundImageFix"/>
<feBlend mode="normal" in="SourceGraphic" in2="BackgroundImageFix" result="shape"/>
<feGaussianBlur stdDeviation="35.0646" result="effect1_foregroundBlur_73_3010"/>
</filter>
<filter id="filter4_f_73_3010" x="-7.14331" y="-104.87" width="1287.16" height="1010.14" filterUnits="userSpaceOnUse" color-interpolation-filters="sRGB">
<feFlood flood-opacity="0" result="BackgroundImageFix"/>
<feBlend mode="normal" in="SourceGraphic" in2="BackgroundImageFix" result="shape"/>
<feGaussianBlur stdDeviation="83.6156" result="effect1_foregroundBlur_73_3010"/>
</filter>
<filter id="filter5_f_73_3010" x="32.2901" y="-36.4467" width="1224.29" height="896.164" filterUnits="userSpaceOnUse" color-interpolation-filters="sRGB">
<feFlood flood-opacity="0" result="BackgroundImageFix"/>
<feBlend mode="normal" in="SourceGraphic" in2="BackgroundImageFix" result="shape"/>
<feGaussianBlur stdDeviation="51.2483" result="effect1_foregroundBlur_73_3010"/>
</filter>
<filter id="filter6_f_73_3010" x="-86.3901" y="-155.127" width="1461.65" height="1133.52" filterUnits="userSpaceOnUse" color-interpolation-filters="sRGB">
<feFlood flood-opacity="0" result="BackgroundImageFix"/>
<feBlend mode="normal" in="SourceGraphic" in2="BackgroundImageFix" result="shape"/>
<feGaussianBlur stdDeviation="110.588" result="effect1_foregroundBlur_73_3010"/>
</filter>
<filter id="filter7_f_73_3010" x="-194.281" y="-263.018" width="1677.43" height="1349.31" filterUnits="userSpaceOnUse" color-interpolation-filters="sRGB">
<feFlood flood-opacity="0" result="BackgroundImageFix"/>
<feBlend mode="normal" in="SourceGraphic" in2="BackgroundImageFix" result="shape"/>
<feGaussianBlur stdDeviation="164.534" result="effect1_foregroundBlur_73_3010"/>
</filter>
<filter id="filter8_f_73_3010" x="384.575" y="250.15" width="853.431" height="853.431" filterUnits="userSpaceOnUse" color-interpolation-filters="sRGB">
<feFlood flood-opacity="0" result="BackgroundImageFix"/>
<feBlend mode="normal" in="SourceGraphic" in2="BackgroundImageFix" result="shape"/>
<feGaussianBlur stdDeviation="100" result="effect1_foregroundBlur_73_3010"/>
</filter>
<filter id="filter9_f_73_3010" x="548.229" y="83.8456" width="751.886" height="971.514" filterUnits="userSpaceOnUse" color-interpolation-filters="sRGB">
<feFlood flood-opacity="0" result="BackgroundImageFix"/>
<feBlend mode="normal" in="SourceGraphic" in2="BackgroundImageFix" result="shape"/>
<feGaussianBlur stdDeviation="8.09183" result="effect1_foregroundBlur_73_3010"/>
</filter>
<filter id="filter10_f_73_3010" x="497.323" y="42.8279" width="824.65" height="1044.44" filterUnits="userSpaceOnUse" color-interpolation-filters="sRGB">
<feFlood flood-opacity="0" result="BackgroundImageFix"/>
<feBlend mode="normal" in="SourceGraphic" in2="BackgroundImageFix" result="shape"/>
<feGaussianBlur stdDeviation="24.2755" result="effect1_foregroundBlur_73_3010"/>
</filter>
<filter id="filter11_f_73_3010" x="475.745" y="21.2497" width="867.806" height="1087.6" filterUnits="userSpaceOnUse" color-interpolation-filters="sRGB">
<feFlood flood-opacity="0" result="BackgroundImageFix"/>
<feBlend mode="normal" in="SourceGraphic" in2="BackgroundImageFix" result="shape"/>
<feGaussianBlur stdDeviation="35.0646" result="effect1_foregroundBlur_73_3010"/>
</filter>
<filter id="filter12_f_73_3010" x="475.745" y="21.2497" width="867.806" height="1087.6" filterUnits="userSpaceOnUse" color-interpolation-filters="sRGB">
<feFlood flood-opacity="0" result="BackgroundImageFix"/>
<feBlend mode="normal" in="SourceGraphic" in2="BackgroundImageFix" result="shape"/>
<feGaussianBlur stdDeviation="35.0646" result="effect1_foregroundBlur_73_3010"/>
</filter>
<filter id="filter13_f_73_3010" x="378.643" y="-75.8523" width="1026.93" height="1281.07" filterUnits="userSpaceOnUse" color-interpolation-filters="sRGB">
<feFlood flood-opacity="0" result="BackgroundImageFix"/>
<feBlend mode="normal" in="SourceGraphic" in2="BackgroundImageFix" result="shape"/>
<feGaussianBlur stdDeviation="83.6156" result="effect1_foregroundBlur_73_3010"/>
</filter>
<filter id="filter14_f_73_3010" x="425.205" y="-34.4765" width="911.987" height="1215.78" filterUnits="userSpaceOnUse" color-interpolation-filters="sRGB">
<feFlood flood-opacity="0" result="BackgroundImageFix"/>
<feBlend mode="normal" in="SourceGraphic" in2="BackgroundImageFix" result="shape"/>
<feGaussianBlur stdDeviation="51.2483" result="effect1_foregroundBlur_73_3010"/>
</filter>
<filter id="filter15_f_73_3010" x="306.525" y="-153.157" width="1149.35" height="1453.14" filterUnits="userSpaceOnUse" color-interpolation-filters="sRGB">
<feFlood flood-opacity="0" result="BackgroundImageFix"/>
<feBlend mode="normal" in="SourceGraphic" in2="BackgroundImageFix" result="shape"/>
<feGaussianBlur stdDeviation="110.588" result="effect1_foregroundBlur_73_3010"/>
</filter>
<filter id="filter16_f_73_3010" x="198.634" y="-261.048" width="1365.13" height="1668.93" filterUnits="userSpaceOnUse" color-interpolation-filters="sRGB">
<feFlood flood-opacity="0" result="BackgroundImageFix"/>
<feBlend mode="normal" in="SourceGraphic" in2="BackgroundImageFix" result="shape"/>
<feGaussianBlur stdDeviation="164.534" result="effect1_foregroundBlur_73_3010"/>
</filter>
<filter id="filter17_f_73_3010" x="682.763" y="682.774" width="566.582" height="300.292" filterUnits="userSpaceOnUse" color-interpolation-filters="sRGB">
<feFlood flood-opacity="0" result="BackgroundImageFix"/>
<feBlend mode="normal" in="SourceGraphic" in2="BackgroundImageFix" result="shape"/>
<feGaussianBlur stdDeviation="3.31386" result="effect1_foregroundBlur_73_3010"/>
</filter>
<filter id="filter18_f_73_3010" x="689.938" y="472.434" width="538.385" height="500.106" filterUnits="userSpaceOnUse" color-interpolation-filters="sRGB">
<feFlood flood-opacity="0" result="BackgroundImageFix"/>
<feBlend mode="normal" in="SourceGraphic" in2="BackgroundImageFix" result="shape"/>
<feGaussianBlur stdDeviation="3.31386" result="effect1_foregroundBlur_73_3010"/>
</filter>
<filter id="filter19_f_73_3010" x="626.312" y="408.808" width="665.637" height="627.358" filterUnits="userSpaceOnUse" color-interpolation-filters="sRGB">
<feFlood flood-opacity="0" result="BackgroundImageFix"/>
<feBlend mode="normal" in="SourceGraphic" in2="BackgroundImageFix" result="shape"/>
<feGaussianBlur stdDeviation="35.1269" result="effect1_foregroundBlur_73_3010"/>
</filter>
<filter id="filter20_f_73_3010" x="658.125" y="440.621" width="602.011" height="563.732" filterUnits="userSpaceOnUse" color-interpolation-filters="sRGB">
<feFlood flood-opacity="0" result="BackgroundImageFix"/>
<feBlend mode="normal" in="SourceGraphic" in2="BackgroundImageFix" result="shape"/>
<feGaussianBlur stdDeviation="19.2204" result="effect1_foregroundBlur_73_3010"/>
</filter>
<filter id="filter21_f_73_3010" x="658.125" y="440.621" width="602.011" height="563.732" filterUnits="userSpaceOnUse" color-interpolation-filters="sRGB">
<feFlood flood-opacity="0" result="BackgroundImageFix"/>
<feBlend mode="normal" in="SourceGraphic" in2="BackgroundImageFix" result="shape"/>
<feGaussianBlur stdDeviation="19.2204" result="effect1_foregroundBlur_73_3010"/>
</filter>
<filter id="filter22_f_73_3010" x="650.95" y="440.621" width="609.186" height="563.731" filterUnits="userSpaceOnUse" color-interpolation-filters="sRGB">
<feFlood flood-opacity="0" result="BackgroundImageFix"/>
<feBlend mode="normal" in="SourceGraphic" in2="BackgroundImageFix" result="shape"/>
<feGaussianBlur stdDeviation="19.2204" result="effect1_foregroundBlur_73_3010"/>
</filter>
<filter id="filter23_f_73_3010" x="700.356" y="459.558" width="559.594" height="532.127" filterUnits="userSpaceOnUse" color-interpolation-filters="sRGB">
<feFlood flood-opacity="0" result="BackgroundImageFix"/>
<feBlend mode="normal" in="SourceGraphic" in2="BackgroundImageFix" result="shape"/>
<feGaussianBlur stdDeviation="8.61604" result="effect1_foregroundBlur_73_3010"/>
</filter>
<filter id="filter24_f_73_3010" x="686.867" y="460.236" width="564.896" height="533.065" filterUnits="userSpaceOnUse" color-interpolation-filters="sRGB">
<feFlood flood-opacity="0" result="BackgroundImageFix"/>
<feBlend mode="normal" in="SourceGraphic" in2="BackgroundImageFix" result="shape"/>
<feGaussianBlur stdDeviation="9.94158" result="effect1_foregroundBlur_73_3010"/>
</filter>
<filter id="filter25_f_73_3010" x="691.291" y="473.045" width="546.338" height="504.603" filterUnits="userSpaceOnUse" color-interpolation-filters="sRGB">
<feFlood flood-opacity="0" result="BackgroundImageFix"/>
<feBlend mode="normal" in="SourceGraphic" in2="BackgroundImageFix" result="shape"/>
<feGaussianBlur stdDeviation="5.30218" result="effect1_foregroundBlur_73_3010"/>
</filter>
<filter id="filter26_f_73_3010" x="670.082" y="563.226" width="588.756" height="432.26" filterUnits="userSpaceOnUse" color-interpolation-filters="sRGB">
<feFlood flood-opacity="0" result="BackgroundImageFix"/>
<feBlend mode="normal" in="SourceGraphic" in2="BackgroundImageFix" result="shape"/>
<feGaussianBlur stdDeviation="15.9065" result="effect1_foregroundBlur_73_3010"/>
</filter>
<filter id="filter27_f_73_3010" x="670.082" y="563.226" width="588.756" height="434.727" filterUnits="userSpaceOnUse" color-interpolation-filters="sRGB">
<feFlood flood-opacity="0" result="BackgroundImageFix"/>
<feBlend mode="normal" in="SourceGraphic" in2="BackgroundImageFix" result="shape"/>
<feGaussianBlur stdDeviation="15.9065" result="effect1_foregroundBlur_73_3010"/>
</filter>
<filter id="filter28_f_73_3010" x="154.226" y="457.055" width="416.842" height="452.568" filterUnits="userSpaceOnUse" color-interpolation-filters="sRGB">
<feFlood flood-opacity="0" result="BackgroundImageFix"/>
<feBlend mode="normal" in="SourceGraphic" in2="BackgroundImageFix" result="shape"/>
<feGaussianBlur stdDeviation="7.26216" result="effect1_foregroundBlur_73_3010"/>
</filter>
<filter id="filter29_f_73_3010" x="130.731" y="430.099" width="478.09" height="514.742" filterUnits="userSpaceOnUse" color-interpolation-filters="sRGB">
<feFlood flood-opacity="0" result="BackgroundImageFix"/>
<feBlend mode="normal" in="SourceGraphic" in2="BackgroundImageFix" result="shape"/>
<feGaussianBlur stdDeviation="21.7865" result="effect1_foregroundBlur_73_3010"/>
</filter>
<filter id="filter30_f_73_3010" x="111.366" y="410.733" width="516.821" height="553.474" filterUnits="userSpaceOnUse" color-interpolation-filters="sRGB">
<feFlood flood-opacity="0" result="BackgroundImageFix"/>
<feBlend mode="normal" in="SourceGraphic" in2="BackgroundImageFix" result="shape"/>
<feGaussianBlur stdDeviation="31.4693" result="effect1_foregroundBlur_73_3010"/>
</filter>
<filter id="filter31_f_73_3010" x="111.366" y="410.733" width="516.821" height="553.474" filterUnits="userSpaceOnUse" color-interpolation-filters="sRGB">
<feFlood flood-opacity="0" result="BackgroundImageFix"/>
<feBlend mode="normal" in="SourceGraphic" in2="BackgroundImageFix" result="shape"/>
<feGaussianBlur stdDeviation="31.4693" result="effect1_foregroundBlur_73_3010"/>
</filter>
<filter id="filter32_f_73_3010" x="35.4511" y="325.898" width="679.882" height="725.454" filterUnits="userSpaceOnUse" color-interpolation-filters="sRGB">
<feFlood flood-opacity="0" result="BackgroundImageFix"/>
<feBlend mode="normal" in="SourceGraphic" in2="BackgroundImageFix" result="shape"/>
<feGaussianBlur stdDeviation="75.0423" result="effect1_foregroundBlur_73_3010"/>
</filter>
<filter id="filter33_f_73_3010" x="93.6548" y="367.04" width="568.92" height="632.617" filterUnits="userSpaceOnUse" color-interpolation-filters="sRGB">
<feFlood flood-opacity="0" result="BackgroundImageFix"/>
<feBlend mode="normal" in="SourceGraphic" in2="BackgroundImageFix" result="shape"/>
<feGaussianBlur stdDeviation="45.9937" result="effect1_foregroundBlur_73_3010"/>
</filter>
<filter id="filter34_f_73_3010" x="-12.8569" y="260.528" width="781.944" height="845.64" filterUnits="userSpaceOnUse" color-interpolation-filters="sRGB">
<feFlood flood-opacity="0" result="BackgroundImageFix"/>
<feBlend mode="normal" in="SourceGraphic" in2="BackgroundImageFix" result="shape"/>
<feGaussianBlur stdDeviation="99.2495" result="effect1_foregroundBlur_73_3010"/>
</filter>
<filter id="filter35_f_73_3010" x="-109.686" y="163.7" width="975.601" height="1039.3" filterUnits="userSpaceOnUse" color-interpolation-filters="sRGB">
<feFlood flood-opacity="0" result="BackgroundImageFix"/>
<feBlend mode="normal" in="SourceGraphic" in2="BackgroundImageFix" result="shape"/>
<feGaussianBlur stdDeviation="147.664" result="effect1_foregroundBlur_73_3010"/>
</filter>
<filter id="filter36_f_73_3010" x="208.521" y="491.428" width="293.876" height="123.069" filterUnits="userSpaceOnUse" color-interpolation-filters="sRGB">
<feFlood flood-opacity="0" result="BackgroundImageFix"/>
<feBlend mode="normal" in="SourceGraphic" in2="BackgroundImageFix" result="shape"/>
<feGaussianBlur stdDeviation="2.97408" result="effect1_foregroundBlur_73_3010"/>
</filter>
<filter id="filter37_f_73_3010" x="217.26" y="498.585" width="281.641" height="210.488" filterUnits="userSpaceOnUse" color-interpolation-filters="sRGB">
<feFlood flood-opacity="0" result="BackgroundImageFix"/>
<feBlend mode="normal" in="SourceGraphic" in2="BackgroundImageFix" result="shape"/>
<feGaussianBlur stdDeviation="2.97408" result="effect1_foregroundBlur_73_3010"/>
</filter>
<filter id="filter38_f_73_3010" x="160.158" y="441.483" width="395.846" height="324.693" filterUnits="userSpaceOnUse" color-interpolation-filters="sRGB">
<feFlood flood-opacity="0" result="BackgroundImageFix"/>
<feBlend mode="normal" in="SourceGraphic" in2="BackgroundImageFix" result="shape"/>
<feGaussianBlur stdDeviation="31.5253" result="effect1_foregroundBlur_73_3010"/>
</filter>
<filter id="filter39_f_73_3010" x="188.709" y="470.034" width="338.743" height="267.59" filterUnits="userSpaceOnUse" color-interpolation-filters="sRGB">
<feFlood flood-opacity="0" result="BackgroundImageFix"/>
<feBlend mode="normal" in="SourceGraphic" in2="BackgroundImageFix" result="shape"/>
<feGaussianBlur stdDeviation="17.2497" result="effect1_foregroundBlur_73_3010"/>
</filter>
<filter id="filter40_f_73_3010" x="188.709" y="470.034" width="338.743" height="267.59" filterUnits="userSpaceOnUse" color-interpolation-filters="sRGB">
<feFlood flood-opacity="0" result="BackgroundImageFix"/>
<feBlend mode="normal" in="SourceGraphic" in2="BackgroundImageFix" result="shape"/>
<feGaussianBlur stdDeviation="17.2497" result="effect1_foregroundBlur_73_3010"/>
</filter>
<filter id="filter41_f_73_3010" x="188.709" y="470.034" width="342.239" height="267.59" filterUnits="userSpaceOnUse" color-interpolation-filters="sRGB">
<feFlood flood-opacity="0" result="BackgroundImageFix"/>
<feBlend mode="normal" in="SourceGraphic" in2="BackgroundImageFix" result="shape"/>
<feGaussianBlur stdDeviation="17.2497" result="effect1_foregroundBlur_73_3010"/>
</filter>
<filter id="filter42_f_73_3010" x="199.004" y="484.154" width="300.675" height="237.351" filterUnits="userSpaceOnUse" color-interpolation-filters="sRGB">
<feFlood flood-opacity="0" result="BackgroundImageFix"/>
<feBlend mode="normal" in="SourceGraphic" in2="BackgroundImageFix" result="shape"/>
<feGaussianBlur stdDeviation="7.73261" result="effect1_foregroundBlur_73_3010"/>
</filter>
<filter id="filter43_f_73_3010" x="201.594" y="483.407" width="305.434" height="239.275" filterUnits="userSpaceOnUse" color-interpolation-filters="sRGB">
<feFlood flood-opacity="0" result="BackgroundImageFix"/>
<feBlend mode="normal" in="SourceGraphic" in2="BackgroundImageFix" result="shape"/>
<feGaussianBlur stdDeviation="8.92225" result="effect1_foregroundBlur_73_3010"/>
</filter>
<filter id="filter44_f_73_3010" x="211.523" y="495.235" width="288.779" height="215.867" filterUnits="userSpaceOnUse" color-interpolation-filters="sRGB">
<feFlood flood-opacity="0" result="BackgroundImageFix"/>
<feBlend mode="normal" in="SourceGraphic" in2="BackgroundImageFix" result="shape"/>
<feGaussianBlur stdDeviation="4.75853" result="effect1_foregroundBlur_73_3010"/>
</filter>
<filter id="filter45_f_73_3010" x="192.488" y="477.795" width="326.847" height="198.53" filterUnits="userSpaceOnUse" color-interpolation-filters="sRGB">
<feFlood flood-opacity="0" result="BackgroundImageFix"/>
<feBlend mode="normal" in="SourceGraphic" in2="BackgroundImageFix" result="shape"/>
<feGaussianBlur stdDeviation="14.2756" result="effect1_foregroundBlur_73_3010"/>
</filter>
<filter id="filter46_f_73_3010" x="192.488" y="477.826" width="326.847" height="198.498" filterUnits="userSpaceOnUse" color-interpolation-filters="sRGB">
<feFlood flood-opacity="0" result="BackgroundImageFix"/>
<feBlend mode="normal" in="SourceGraphic" in2="BackgroundImageFix" result="shape"/>
<feGaussianBlur stdDeviation="14.2756" result="effect1_foregroundBlur_73_3010"/>
</filter>
<linearGradient id="paint0_linear_73_3010" x1="390.75" y1="509.933" x2="390.75" y2="1758.76" gradientUnits="userSpaceOnUse">
<stop stop-color="#C4C4C4" stop-opacity="0"/>
<stop offset="0.380208" stop-color="#C4C4C4"/>
<stop offset="0.578125" stop-color="#C4C4C4"/>
<stop offset="1" stop-color="#C4C4C4" stop-opacity="0"/>
</linearGradient>
<linearGradient id="paint1_linear_73_3010" x1="390.75" y1="509.933" x2="390.75" y2="1758.76" gradientUnits="userSpaceOnUse">
<stop stop-color="#BDEE60"/>
<stop offset="0.989583" stop-color="#005436"/>
</linearGradient>
<linearGradient id="paint2_linear_73_3010" x1="269.084" y1="86.7905" x2="1152.18" y2="483.165" gradientUnits="userSpaceOnUse">
<stop stop-color="#FFA06E"/>
<stop offset="1" stop-color="#F34B1E"/>
</linearGradient>
<linearGradient id="paint3_linear_73_3010" x1="269.084" y1="86.7905" x2="1152.18" y2="483.165" gradientUnits="userSpaceOnUse">
<stop stop-color="#FFD6C0"/>
<stop offset="0.765625" stop-color="#FFA06E" stop-opacity="0.5"/>
<stop offset="1" stop-color="#F34B1E"/>
</linearGradient>
<linearGradient id="paint4_linear_73_3010" x1="265.689" y1="94.3545" x2="1148.78" y2="490.729" gradientUnits="userSpaceOnUse">
<stop stop-color="#FFA06E"/>
<stop offset="1" stop-color="#F34B1E"/>
</linearGradient>
<linearGradient id="paint5_linear_73_3010" x1="265.689" y1="94.3545" x2="1148.78" y2="490.729" gradientUnits="userSpaceOnUse">
<stop stop-color="#FFD6C0"/>
<stop offset="0.765625" stop-color="#FFA06E" stop-opacity="0.5"/>
<stop offset="1" stop-color="#F34B1E"/>
</linearGradient>
<linearGradient id="paint6_linear_73_3010" x1="260.48" y1="108.489" x2="1150.19" y2="507.834" gradientUnits="userSpaceOnUse">
<stop stop-color="#FFA06E"/>
<stop offset="1" stop-color="#F34B1E"/>
</linearGradient>
<linearGradient id="paint7_linear_73_3010" x1="260.48" y1="108.489" x2="1150.19" y2="507.834" gradientUnits="userSpaceOnUse">
<stop stop-color="#FFD6C0"/>
<stop offset="0.765625" stop-color="#FFA06E" stop-opacity="0.5"/>
<stop offset="1" stop-color="#F34B1E"/>
</linearGradient>
<linearGradient id="paint8_linear_73_3010" x1="260.48" y1="108.489" x2="1150.19" y2="507.834" gradientUnits="userSpaceOnUse">
<stop stop-color="#FFA06E"/>
<stop offset="1" stop-color="#F34B1E"/>
</linearGradient>
<linearGradient id="paint9_linear_73_3010" x1="260.48" y1="108.489" x2="1150.19" y2="507.834" gradientUnits="userSpaceOnUse">
<stop stop-color="#FFD6C0"/>
<stop offset="0.765625" stop-color="#FFA06E" stop-opacity="0.5"/>
<stop offset="1" stop-color="#F34B1E"/>
</linearGradient>
<linearGradient id="paint10_linear_73_3010" x1="260.48" y1="108.489" x2="1150.19" y2="507.834" gradientUnits="userSpaceOnUse">
<stop stop-color="#FFA06E"/>
<stop offset="1" stop-color="#F34B1E"/>
</linearGradient>
<linearGradient id="paint11_linear_73_3010" x1="260.48" y1="108.489" x2="1150.19" y2="507.834" gradientUnits="userSpaceOnUse">
<stop stop-color="#FFD6C0"/>
<stop offset="0.765625" stop-color="#FFA06E" stop-opacity="0.5"/>
<stop offset="1" stop-color="#F34B1E"/>
</linearGradient>
<linearGradient id="paint12_linear_73_3010" x1="251.144" y1="129.29" x2="1140.85" y2="528.635" gradientUnits="userSpaceOnUse">
<stop stop-color="#FFA06E"/>
<stop offset="1" stop-color="#F34B1E"/>
</linearGradient>
<linearGradient id="paint13_linear_73_3010" x1="251.144" y1="129.29" x2="1140.85" y2="528.635" gradientUnits="userSpaceOnUse">
<stop stop-color="#FFD6C0"/>
<stop offset="0.765625" stop-color="#FFA06E" stop-opacity="0.5"/>
<stop offset="1" stop-color="#F34B1E"/>
</linearGradient>
<linearGradient id="paint14_linear_73_3010" x1="209.756" y1="124.06" x2="1170.38" y2="555.234" gradientUnits="userSpaceOnUse">
<stop stop-color="#FFA06E"/>
<stop offset="1" stop-color="#F34B1E"/>
</linearGradient>
<linearGradient id="paint15_linear_73_3010" x1="209.756" y1="124.06" x2="1170.38" y2="555.234" gradientUnits="userSpaceOnUse">
<stop stop-color="#FFD6C0"/>
<stop offset="0.765625" stop-color="#FFA06E" stop-opacity="0.5"/>
<stop offset="1" stop-color="#F34B1E"/>
</linearGradient>
<linearGradient id="paint16_linear_73_3010" x1="209.756" y1="124.06" x2="1170.38" y2="555.234" gradientUnits="userSpaceOnUse">
<stop stop-color="#FFA06E"/>
<stop offset="1" stop-color="#F34B1E"/>
</linearGradient>
<linearGradient id="paint17_linear_73_3010" x1="209.756" y1="124.06" x2="1170.38" y2="555.234" gradientUnits="userSpaceOnUse">
<stop stop-color="#FFD6C0"/>
<stop offset="0.765625" stop-color="#FFA06E" stop-opacity="0.5"/>
<stop offset="1" stop-color="#F34B1E"/>
</linearGradient>
<linearGradient id="paint18_linear_73_3010" x1="209.756" y1="124.06" x2="1170.38" y2="555.234" gradientUnits="userSpaceOnUse">
<stop stop-color="#FFA06E"/>
<stop offset="1" stop-color="#F34B1E"/>
</linearGradient>
<linearGradient id="paint19_linear_73_3010" x1="209.756" y1="124.06" x2="1170.38" y2="555.234" gradientUnits="userSpaceOnUse">
<stop stop-color="#FFD6C0"/>
<stop offset="0.765625" stop-color="#FFA06E" stop-opacity="0.5"/>
<stop offset="1" stop-color="#F34B1E"/>
</linearGradient>
<linearGradient id="paint20_linear_73_3010" x1="1256.57" y1="-128.926" x2="1256.57" y2="1119.9" gradientUnits="userSpaceOnUse">
<stop stop-color="#C4C4C4" stop-opacity="0"/>
<stop offset="0.380208" stop-color="#C4C4C4"/>
<stop offset="0.578125" stop-color="#C4C4C4"/>
<stop offset="1" stop-color="#C4C4C4" stop-opacity="0"/>
</linearGradient>
<linearGradient id="paint21_linear_73_3010" x1="1256.57" y1="-128.926" x2="1256.57" y2="1119.9" gradientUnits="userSpaceOnUse">
<stop stop-color="#BDEE60"/>
<stop offset="0.989583" stop-color="#005436"/>
</linearGradient>
<linearGradient id="paint22_linear_73_3010" x1="1222.85" y1="209.203" x2="796.776" y2="1078.35" gradientUnits="userSpaceOnUse">
<stop stop-color="#FFA06E"/>
<stop offset="1" stop-color="#F34B1E"/>
</linearGradient>
<linearGradient id="paint23_linear_73_3010" x1="1222.85" y1="209.203" x2="796.776" y2="1078.35" gradientUnits="userSpaceOnUse">
<stop stop-color="#FFA06E" stop-opacity="0.5"/>
<stop offset="0.765625" stop-color="#E6232F"/>
<stop offset="1" stop-color="#E6232F"/>
</linearGradient>
<linearGradient id="paint24_linear_73_3010" x1="1215.41" y1="205.553" x2="789.331" y2="1074.7" gradientUnits="userSpaceOnUse">
<stop stop-color="#FFA06E"/>
<stop offset="1" stop-color="#F34B1E"/>
</linearGradient>
<linearGradient id="paint25_linear_73_3010" x1="1215.41" y1="205.553" x2="789.331" y2="1074.7" gradientUnits="userSpaceOnUse">
<stop stop-color="#FFA06E" stop-opacity="0.5"/>
<stop offset="0.765625" stop-color="#E6232F"/>
<stop offset="1" stop-color="#E6232F"/>
</linearGradient>
<linearGradient id="paint26_linear_73_3010" x1="1201.46" y1="199.868" x2="772.189" y2="1075.53" gradientUnits="userSpaceOnUse">
<stop stop-color="#FFA06E"/>
<stop offset="1" stop-color="#F34B1E"/>
</linearGradient>
<linearGradient id="paint27_linear_73_3010" x1="1201.46" y1="199.868" x2="772.189" y2="1075.53" gradientUnits="userSpaceOnUse">
<stop stop-color="#FFA06E" stop-opacity="0.5"/>
<stop offset="0.765625" stop-color="#E6232F"/>
<stop offset="1" stop-color="#E6232F"/>
</linearGradient>
<linearGradient id="paint28_linear_73_3010" x1="1201.46" y1="199.868" x2="772.189" y2="1075.53" gradientUnits="userSpaceOnUse">
<stop stop-color="#FFA06E"/>
<stop offset="1" stop-color="#F34B1E"/>
</linearGradient>
<linearGradient id="paint29_linear_73_3010" x1="1201.46" y1="199.868" x2="772.189" y2="1075.53" gradientUnits="userSpaceOnUse">
<stop stop-color="#FFA06E" stop-opacity="0.5"/>
<stop offset="0.765625" stop-color="#E6232F"/>
<stop offset="1" stop-color="#E6232F"/>
</linearGradient>
<linearGradient id="paint30_linear_73_3010" x1="1201.46" y1="199.868" x2="772.189" y2="1075.53" gradientUnits="userSpaceOnUse">
<stop stop-color="#FFA06E"/>
<stop offset="1" stop-color="#F34B1E"/>
</linearGradient>
<linearGradient id="paint31_linear_73_3010" x1="1201.46" y1="199.868" x2="772.189" y2="1075.53" gradientUnits="userSpaceOnUse">
<stop stop-color="#FFA06E" stop-opacity="0.5"/>
<stop offset="0.765625" stop-color="#E6232F"/>
<stop offset="1" stop-color="#E6232F"/>
</linearGradient>
<linearGradient id="paint32_linear_73_3010" x1="1180.99" y1="189.832" x2="751.716" y2="1065.5" gradientUnits="userSpaceOnUse">
<stop stop-color="#FFA06E"/>
<stop offset="1" stop-color="#F34B1E"/>
</linearGradient>
<linearGradient id="paint33_linear_73_3010" x1="1180.99" y1="189.832" x2="751.716" y2="1065.5" gradientUnits="userSpaceOnUse">
<stop stop-color="#FFA06E" stop-opacity="0.5"/>
<stop offset="0.765625" stop-color="#E6232F"/>
<stop offset="1" stop-color="#E6232F"/>
</linearGradient>
<linearGradient id="paint34_linear_73_3010" x1="1187.62" y1="148.645" x2="724.132" y2="1094.1" gradientUnits="userSpaceOnUse">
<stop stop-color="#FFA06E"/>
<stop offset="1" stop-color="#F34B1E"/>
</linearGradient>
<linearGradient id="paint35_linear_73_3010" x1="1187.62" y1="148.645" x2="724.132" y2="1094.1" gradientUnits="userSpaceOnUse">
<stop stop-color="#FFA06E" stop-opacity="0.5"/>
<stop offset="0.765625" stop-color="#E6232F"/>
<stop offset="1" stop-color="#E6232F"/>
</linearGradient>
<linearGradient id="paint36_linear_73_3010" x1="1187.62" y1="148.645" x2="724.132" y2="1094.1" gradientUnits="userSpaceOnUse">
<stop stop-color="#FFA06E"/>
<stop offset="1" stop-color="#F34B1E"/>
</linearGradient>
<linearGradient id="paint37_linear_73_3010" x1="1187.62" y1="148.645" x2="724.132" y2="1094.1" gradientUnits="userSpaceOnUse">
<stop stop-color="#FFA06E" stop-opacity="0.5"/>
<stop offset="0.765625" stop-color="#E6232F"/>
<stop offset="1" stop-color="#E6232F"/>
</linearGradient>
<linearGradient id="paint38_linear_73_3010" x1="1187.62" y1="148.645" x2="724.132" y2="1094.1" gradientUnits="userSpaceOnUse">
<stop stop-color="#FFA06E"/>
<stop offset="1" stop-color="#F34B1E"/>
</linearGradient>
<linearGradient id="paint39_linear_73_3010" x1="1187.62" y1="148.645" x2="724.132" y2="1094.1" gradientUnits="userSpaceOnUse">
<stop stop-color="#FFA06E" stop-opacity="0.5"/>
<stop offset="0.765625" stop-color="#E6232F"/>
<stop offset="1" stop-color="#E6232F"/>
</linearGradient>
<linearGradient id="paint40_linear_73_3010" x1="1092.94" y1="761.223" x2="693.192" y2="847.699" gradientUnits="userSpaceOnUse">
<stop stop-color="#C4C4C4" stop-opacity="0"/>
<stop offset="0.565737" stop-color="#C4C4C4"/>
<stop offset="1" stop-color="#C4C4C4" stop-opacity="0"/>
</linearGradient>
<linearGradient id="paint41_linear_73_3010" x1="779.418" y1="1126.01" x2="1092.54" y2="590.638" gradientUnits="userSpaceOnUse">
<stop stop-color="#BDEE60"/>
<stop offset="0.989583" stop-color="#005436"/>
</linearGradient>
<linearGradient id="paint42_linear_73_3010" x1="865.444" y1="1019.9" x2="1166.62" y2="504.936" gradientUnits="userSpaceOnUse">
<stop stop-color="#FFA06E" stop-opacity="0.5"/>
<stop offset="0.765625" stop-color="#E6232F"/>
<stop offset="1" stop-color="#E6232F"/>
</linearGradient>
<linearGradient id="paint43_linear_73_3010" x1="844.421" y1="1009.37" x2="1149.84" y2="487.166" gradientUnits="userSpaceOnUse">
<stop stop-color="#FFA06E" stop-opacity="0.5"/>
<stop offset="0.765625" stop-color="#E6232F"/>
<stop offset="1" stop-color="#E6232F"/>
</linearGradient>
<linearGradient id="paint44_linear_73_3010" x1="844.421" y1="1009.37" x2="1149.84" y2="487.166" gradientUnits="userSpaceOnUse">
<stop stop-color="#FFA06E" stop-opacity="0.5"/>
<stop offset="0.765625" stop-color="#E6232F"/>
<stop offset="1" stop-color="#E6232F"/>
</linearGradient>
<linearGradient id="paint45_linear_73_3010" x1="844.421" y1="1009.37" x2="1149.84" y2="487.166" gradientUnits="userSpaceOnUse">
<stop stop-color="#FFA06E" stop-opacity="0.5"/>
<stop offset="0.765625" stop-color="#E6232F"/>
<stop offset="1" stop-color="#E6232F"/>
</linearGradient>
<linearGradient id="paint46_linear_73_3010" x1="844.421" y1="1009.37" x2="1149.84" y2="487.166" gradientUnits="userSpaceOnUse">
<stop stop-color="#FFA06E" stop-opacity="0.5"/>
<stop offset="0.765625" stop-color="#E6232F"/>
<stop offset="1" stop-color="#E6232F"/>
</linearGradient>
<linearGradient id="paint47_linear_73_3010" x1="840.175" y1="1011.13" x2="1147.44" y2="485.764" gradientUnits="userSpaceOnUse">
<stop stop-color="#FFA06E" stop-opacity="0.5"/>
<stop offset="0.765625" stop-color="#E6232F"/>
<stop offset="1" stop-color="#E6232F"/>
</linearGradient>
<linearGradient id="paint48_linear_73_3010" x1="865.444" y1="1019.9" x2="1166.62" y2="504.936" gradientUnits="userSpaceOnUse">
<stop stop-color="#FFA06E" stop-opacity="0.5"/>
<stop offset="0.765625" stop-color="#E6232F"/>
<stop offset="1" stop-color="#E6232F"/>
</linearGradient>
<linearGradient id="paint49_linear_73_3010" x1="854.606" y1="1018.86" x2="1155.78" y2="503.902" gradientUnits="userSpaceOnUse">
<stop stop-color="#FFA06E" stop-opacity="0.5"/>
<stop offset="0.765625" stop-color="#E6232F"/>
<stop offset="1" stop-color="#E6232F"/>
</linearGradient>
<linearGradient id="paint50_linear_73_3010" x1="849.75" y1="1012.49" x2="1151.7" y2="496.21" gradientUnits="userSpaceOnUse">
<stop stop-color="#FFA06E" stop-opacity="0.5"/>
<stop offset="0.765625" stop-color="#E6232F"/>
<stop offset="1" stop-color="#E6232F"/>
</linearGradient>
<linearGradient id="paint51_linear_73_3010" x1="846.821" y1="1017.49" x2="1107.02" y2="572.597" gradientUnits="userSpaceOnUse">
<stop stop-color="#FFA06E" stop-opacity="0.5"/>
<stop offset="0.765625" stop-color="#E6232F"/>
<stop offset="1" stop-color="#E6232F"/>
</linearGradient>
<linearGradient id="paint52_linear_73_3010" x1="846.821" y1="1017.49" x2="1107.02" y2="572.597" gradientUnits="userSpaceOnUse">
<stop stop-color="#FFA06E" stop-opacity="0.5"/>
<stop offset="0.765625" stop-color="#E6232F"/>
<stop offset="1" stop-color="#E6232F"/>
</linearGradient>
<linearGradient id="paint53_linear_73_3010" x1="542.387" y1="1022.47" x2="542.387" y2="1622.5" gradientUnits="userSpaceOnUse">
<stop stop-color="#C4C4C4" stop-opacity="0"/>
<stop offset="0.380208" stop-color="#C4C4C4"/>
<stop offset="0.578125" stop-color="#C4C4C4"/>
<stop offset="1" stop-color="#C4C4C4" stop-opacity="0"/>
</linearGradient>
<linearGradient id="paint54_linear_73_3010" x1="170.983" y1="820.412" x2="462.636" y2="458.135" gradientUnits="userSpaceOnUse">
<stop stop-color="#FFA06E"/>
<stop offset="1" stop-color="#F34B1E"/>
</linearGradient>
<linearGradient id="paint55_linear_73_3010" x1="174.086" y1="822.91" x2="465.739" y2="460.633" gradientUnits="userSpaceOnUse">
<stop stop-color="#FFA06E"/>
<stop offset="1" stop-color="#F34B1E"/>
</linearGradient>
<linearGradient id="paint56_linear_73_3010" x1="180.023" y1="827.05" x2="473.862" y2="462.058" gradientUnits="userSpaceOnUse">
<stop stop-color="#FFA06E"/>
<stop offset="1" stop-color="#F34B1E"/>
</linearGradient>
<linearGradient id="paint57_linear_73_3010" x1="180.023" y1="827.05" x2="473.862" y2="462.058" gradientUnits="userSpaceOnUse">
<stop stop-color="#FFA06E"/>
<stop offset="1" stop-color="#F34B1E"/>
</linearGradient>
<linearGradient id="paint58_linear_73_3010" x1="180.023" y1="827.05" x2="473.862" y2="462.058" gradientUnits="userSpaceOnUse">
<stop stop-color="#FFA06E"/>
<stop offset="1" stop-color="#F34B1E"/>
</linearGradient>
<linearGradient id="paint59_linear_73_3010" x1="188.556" y1="833.92" x2="482.395" y2="468.928" gradientUnits="userSpaceOnUse">
<stop stop-color="#FFA06E"/>
<stop offset="1" stop-color="#F34B1E"/>
</linearGradient>
<linearGradient id="paint60_linear_73_3010" x1="181.091" y1="852.522" x2="498.35" y2="458.439" gradientUnits="userSpaceOnUse">
<stop stop-color="#FFA06E"/>
<stop offset="1" stop-color="#F34B1E"/>
</linearGradient>
<linearGradient id="paint61_linear_73_3010" x1="181.091" y1="852.522" x2="498.35" y2="458.439" gradientUnits="userSpaceOnUse">
<stop stop-color="#FFA06E"/>
<stop offset="1" stop-color="#F34B1E"/>
</linearGradient>
<linearGradient id="paint62_linear_73_3010" x1="181.091" y1="852.522" x2="498.35" y2="458.439" gradientUnits="userSpaceOnUse">
<stop stop-color="#FFA06E"/>
<stop offset="1" stop-color="#F34B1E"/>
</linearGradient>
<linearGradient id="paint63_linear_73_3010" x1="290.277" y1="575.434" x2="486.782" y2="577.198" gradientUnits="userSpaceOnUse">
<stop stop-color="#C4C4C4" stop-opacity="0"/>
<stop offset="0.565737" stop-color="#C4C4C4"/>
<stop offset="1" stop-color="#C4C4C4" stop-opacity="0"/>
</linearGradient>
</defs>
</svg>
