<svg width="12" height="13" viewBox="0 0 12 13" fill="none" xmlns="http://www.w3.org/2000/svg">
<path fill-rule="evenodd" clip-rule="evenodd" d="M6.89506 0.393035C6.30273 -0.131012 5.43622 -0.131011 4.84389 0.393035L4.30445 0.870294C4.05269 1.09303 3.74115 1.2283 3.41287 1.2574L2.70947 1.31975C1.93711 1.38822 1.32439 2.03046 1.25907 2.84004L1.19959 3.57734C1.17183 3.92144 1.04277 4.248 0.83028 4.5119L0.374965 5.07734C-0.124989 5.69821 -0.124988 6.60648 0.374965 7.22735L0.83028 7.79279C1.04277 8.05668 1.17183 8.38326 1.19959 8.72734L1.25907 9.46468C1.32439 10.2743 1.93711 10.9165 2.70947 10.9849L3.41287 11.0473C3.74115 11.0764 4.05269 11.2117 4.30446 11.4344L4.84389 11.9117C5.43622 12.4357 6.30273 12.4357 6.89506 11.9117L7.4345 11.4344C7.68625 11.2117 7.99782 11.0764 8.32609 11.0473L9.02952 10.9849C9.80188 10.9165 10.4146 10.2743 10.4799 9.46468L10.5393 8.72734C10.5672 8.38326 10.6962 8.05668 10.9087 7.79279L11.364 7.22735C11.8639 6.60648 11.8639 5.69821 11.364 5.07734L10.9087 4.51189C10.6962 4.248 10.5672 3.92144 10.5393 3.57734L10.4799 2.84004C10.4146 2.03046 9.80188 1.38822 9.02952 1.31975L8.32609 1.2574C7.99782 1.2283 7.68625 1.09303 7.4345 0.870294L6.89506 0.393035ZM8.7608 5.01604C9.04025 4.72315 9.04025 4.24828 8.7608 3.95539C8.48143 3.66249 8.02835 3.66249 7.7489 3.95539L5.0748 6.75839L3.99071 5.62205C3.71129 5.32915 3.25824 5.32915 2.97882 5.62205C2.69939 5.91494 2.69939 6.38982 2.97882 6.68271L4.56886 8.34934C4.84828 8.64226 5.30132 8.64226 5.58075 8.34934L8.7608 5.01604Z" fill="white"/>
</svg>
