<svg width="1440" height="572" viewBox="0 0 1440 572" fill="none" xmlns="http://www.w3.org/2000/svg">
<path opacity="0.1" d="M-92.4473 571.329C-74.6804 481.161 234.568 473.759 247.682 304.132C275.269 -52.722 1111.82 691.405 1182.26 488.548C1322.89 83.5731 2870.79 123.835 2905.01 59.179M-29.8491 263.768C13.5831 344.69 152.01 477.225 358.261 359.988C616.075 213.442 752.186 -70.364 1058.88 16.8054C1365.58 103.975 1708.73 446.523 1867.84 224.201M-89.6413 545.356C-70.6523 463.335 230.462 462.597 252.773 295.464C291.323 -51.3746 1094.52 643.804 1176.21 454.757C1324.75 73.2176 2815.28 127.874 2855.45 55.7102M-86.8348 519.384C-66.6235 445.51 226.357 451.435 257.864 286.797C307.378 -50.0272 1077.22 596.202 1170.16 420.966C1326.61 62.862 2759.77 131.913 2805.89 52.2413M-84.0288 493.411C-62.5954 427.684 222.25 440.273 262.955 278.13C323.432 -48.6798 1059.92 548.6 1164.11 387.175C1328.46 52.5064 2704.26 135.952 2756.32 48.7724M-81.2222 467.439C-58.5666 409.859 218.145 429.112 268.046 269.463C339.486 -47.3316 1042.62 500.999 1158.06 353.385C1330.32 42.1517 2648.75 139.992 2706.76 45.3044M-78.4162 441.466C-54.5385 392.033 214.039 417.95 273.137 260.796C355.54 -45.9842 1025.32 453.397 1152.01 319.594C1332.18 31.7961 2593.24 144.031 2657.2 41.8355M-75.6102 415.493C-50.5103 374.208 209.932 406.788 278.228 252.129C371.594 -44.6368 1008.02 405.795 1145.96 285.803C1334.04 21.4406 2537.73 148.07 2607.63 38.3666M-72.8036 389.52C-46.4816 356.382 205.827 395.626 283.319 243.462C387.649 -43.2895 990.719 358.194 1139.91 252.012C1335.9 11.085 2482.21 152.109 2558.07 34.8977M-69.9976 363.547C-42.4534 338.556 201.72 384.464 288.41 234.794C403.703 -41.9421 973.419 310.592 1133.86 218.221C1337.76 0.729439 2426.7 156.148 2508.5 31.4288M-67.1916 337.574C-38.4253 320.73 197.614 373.302 293.501 226.127C419.757 -40.5947 956.119 262.99 1127.81 184.43C1339.61 -9.62613 2371.19 160.187 2458.94 27.96M-64.385 311.601C-34.3965 302.905 193.509 362.14 298.592 217.46C435.812 -39.2473 938.819 215.388 1121.76 150.639C1341.47 -19.9817 2315.68 164.226 2409.38 24.4911M-61.579 285.629C-30.3684 285.08 189.402 350.978 303.683 208.794C451.866 -37.8991 921.519 167.787 1115.71 116.849C1343.33 -30.3364 2260.17 168.266 2359.81 21.023M-58.7724 259.656C-26.3396 267.254 185.297 339.816 308.775 200.126C467.92 -36.5517 904.219 120.185 1109.66 83.0577C1345.19 -40.692 2204.66 172.305 2310.25 17.5541M-55.8676 240.091C-22.2127 255.836 181.289 335.062 313.964 197.867C484.073 -28.7967 887.017 78.9911 1103.71 55.6743C1347.15 -44.6399 2149.25 182.752 2260.78 20.4929M-52.7614 233.589C-17.8843 257.481 177.483 343.37 319.355 208.67C500.427 -7.97909 870.017 50.8595 1097.96 41.3535C1349.3 -35.5253 2094.04 206.261 2211.52 36.4942M-49.6111 229.912C-13.5118 261.952 173.722 354.505 324.791 222.299C516.825 15.6649 853.061 25.5543 1092.26 29.8591C1351.51 -23.5842 2038.87 232.597 2162.3 55.3219M-46.3543 233.176C-9.03283 273.363 170.066 372.58 330.332 242.869C533.33 46.249 836.212 7.18925 1086.66 25.3048C1353.82 -4.70305 1983.81 265.873 2113.19 81.0898M-43.055 239.195C-4.51139 287.529 166.453 393.41 335.916 266.193C549.877 79.5885 819.405 -8.42049 1081.1 23.5059C1356.17 16.9335 1928.79 301.904 2064.12 109.613M-39.7537 245.306C0.0120275 301.787 162.842 414.331 341.502 289.61C566.427 113.02 802.6 -23.9386 1075.55 21.7985C1358.52 38.6616 1873.77 338.026 2015.05 138.228M-36.4526 251.448C4.53535 316.076 159.231 435.284 347.088 313.057C582.976 146.481 785.795 -39.426 1069.99 20.1219C1360.87 60.4205 1818.76 374.18 1965.98 166.873M-33.1506 257.604C9.05947 330.379 155.621 456.251 352.675 336.519C599.526 179.958 768.99 -54.8989 1064.44 18.4598C1363.23 82.1938 1763.74 410.348 1916.91 195.533" stroke="#F34B1E"/>
</svg>
